<?xml version="1.0" standalone="no"?>
<!DOCTYPE svg PUBLIC "-//W3C//DTD SVG 1.1//EN" "http://www.w3.org/Graphics/SVG/1.1/DTD/svg11.dtd" >
<svg xmlns="http://www.w3.org/2000/svg" xmlns:xlink="http://www.w3.org/1999/xlink" version="1.1">
<metadata>
Created by FontForge 20150913 at Wed Apr 20 00:50:57 2016
 By Jimmy Wärting
 Copyright 1989, 1991, 2002 Fundicion Tipografica Neufville S. A.
 This record material and the data recorded thereon is the property of
 Fundicion Tipografica Neufville S. A. and Adobe Systems Incorporated,
 or its licensors, and may not be reproduced, used, displayed, modified,
 disclosed or transferred in any manner without the express written
 approval of Fundicion Tipografica Neufville S. A. and Adobe Systems
 Incorporated. 
</metadata>
<defs>
<font id="BauerBodoniStd-Italic" horiz-adv-x="556" >
  <font-face 
    font-family="Bauer Bodoni Std 1"
    font-weight="400"
    font-style="italic"
    font-stretch="normal"
    units-per-em="1000"
    panose-1="2 7 6 3 8 7 5 9 3 3"
    ascent="735"
    descent="-265"
    x-height="426"
    cap-height="704"
    bbox="-188 -280 1005 945"
    underline-thickness="50"
    underline-position="-100"
    slope="-12"
    stemh="16"
    stemv="72"
    unicode-range="U+0020-FB02"
  />
<missing-glyph horiz-adv-x="600" 
d="M100 0v700h500v-700h-500zM350 395l170 255h-340zM380 350l170 -255v510zM180 50h340l-170 255zM150 605v-510l170 255z" />
    <glyph glyph-name="f_i" unicode="fi" 
d="M39 394l4 16h88c41 160 133 332 311 332c51 0 115 -23 115 -87c0 -26 -23 -51 -51 -51c-27 0 -45 18 -45 46c0 27 17 44 41 44c4 0 9 2 9 7c0 16 -40 25 -67 25c-176 0 -190 -167 -231 -316h153c43 0 85 4 128 22l-104 -326c-7 -21 -16 -47 -16 -62c0 -12 7 -26 24 -26
c53 0 99 68 111 86l12 -8c-13 -22 -72 -102 -150 -102c-32 0 -69 18 -69 67c0 19 7 39 13 60l83 273h-189c-59 -204 -104 -396 -149 -487c-68 -138 -108 -165 -171 -165c-34 0 -60 30 -60 58c0 30 22 50 45 50c27 0 45 -17 45 -41c0 -29 -19 -29 -19 -41c0 -7 6 -10 15 -10
c17 0 56 15 83 98c35 108 78 352 129 538h-88z" />
    <glyph glyph-name="f_l" unicode="fl" 
d="M39 394l4 16h88c41 160 133 332 311 332c25 0 39 -6 51 -11c11 -6 19 -12 29 -12c20 0 43 12 56 23l-192 -650c-6 -20 -12 -36 -12 -48s7 -26 30 -26c47 0 93 68 105 86l12 -8c-13 -22 -72 -102 -150 -102c-32 0 -69 18 -69 67c0 18 7 41 18 77l137 460
c-13 9 -24 21 -24 37c0 59 57 37 57 64c0 16 -20 27 -46 27c-176 0 -190 -167 -232 -316h105l-3 -16h-105c-59 -204 -104 -396 -149 -487c-68 -138 -108 -165 -171 -165c-34 0 -60 30 -60 58c0 30 22 50 45 50c27 0 45 -17 45 -41c0 -29 -19 -29 -19 -41c0 -7 6 -10 15 -10
c17 0 56 15 83 98c35 108 78 352 129 538h-88z" />
    <glyph glyph-name=".notdef" horiz-adv-x="600" 
d="M100 0v700h500v-700h-500zM350 395l170 255h-340zM380 350l170 -255v510zM180 50h340l-170 255zM150 605v-510l170 255z" />
    <glyph glyph-name="space" unicode=" " horiz-adv-x="278" 
 />
    <glyph glyph-name="exclam" unicode="!" horiz-adv-x="333" 
d="M132 170l-11 4c35 118 76 254 76 361c0 20 -1 36 -2 52c41 22 83 81 97 133l11 -4c-6 -21 -10 -38 -10 -57c0 -28 10 -58 28 -72c-35 -25 -114 -176 -189 -417zM40 47c0 35 23 73 61 73c31 0 53 -25 53 -54c0 -36 -23 -72 -63 -72c-31 0 -51 23 -51 53z" />
    <glyph glyph-name="quotedbl" unicode="&#x22;" horiz-adv-x="444" 
d="M327 450l-16 166c-2 21 -3 35 -3 50c0 27 3 54 36 54s36 -27 36 -54c0 -15 -1 -29 -3 -50l-16 -166c-1 -11 -2 -30 -17 -30s-16 19 -17 30zM183 450l-16 166c-2 21 -3 35 -3 50c0 27 3 54 36 54s36 -27 36 -54c0 -15 -1 -29 -3 -50l-16 -166c-1 -11 -2 -30 -17 -30
s-16 19 -17 30z" />
    <glyph glyph-name="numbersign" unicode="#" 
d="M131 0l32 225h-108l7 48h107l22 152h-108l7 48h107l32 225h56l-32 -225h135l31 225h56l-32 -225h108l-7 -48h-107l-22 -152h108l-7 -48h-107l-32 -225h-56l32 225h-134l-32 -225h-56zM360 273l21 152h-134l-22 -152h135z" />
    <glyph glyph-name="dollar" unicode="$" 
d="M292 319l-84 -312c11 -2 23 -3 35 -3c114 0 184 79 184 176c0 86 -65 112 -135 139zM305 433l70 259c-8 2 -15 2 -23 2c-87 0 -170 -59 -170 -145c0 -65 57 -91 123 -116zM147 -154l39 148c-63 10 -104 52 -140 52c-24 0 -32 -24 -41 -46l-15 3l69 250l16 -3
c-8 -29 -13 -58 -13 -87c0 -76 53 -135 129 -152l85 315c-69 26 -136 59 -136 160c0 108 69 224 217 224c8 0 15 0 22 -2l33 121l16 -5l-32 -118c66 -12 92 -51 121 -51c28 0 30 23 33 34l16 -5l-57 -206l-16 3c5 25 10 49 10 75c0 73 -45 121 -111 134l-71 -264
c82 -32 172 -68 172 -185c0 -98 -63 -253 -259 -253c-11 0 -22 1 -31 3l-41 -150z" />
    <glyph glyph-name="percent" unicode="%" horiz-adv-x="833" 
d="M480 111c2 121 78 235 186 235c67 0 104 -71 104 -136c0 -92 -81 -222 -184 -222c-68 0 -106 61 -106 123zM581 236l-13 -41c-11 -32 -34 -105 -34 -138c0 -28 11 -53 52 -53c27 0 53 12 74 72l14 41c18 53 36 137 36 160c0 38 -20 53 -45 53c-30 0 -59 -15 -84 -94z
M105 475c2 121 78 235 186 235c67 0 104 -71 104 -136c0 -92 -81 -222 -184 -222c-68 0 -106 61 -106 123zM206 600l-13 -41c-11 -32 -34 -105 -34 -138c0 -28 11 -53 52 -53c27 0 53 12 74 72l14 41c18 53 36 137 36 160c0 38 -20 53 -45 53c-30 0 -59 -15 -84 -94z
M185 -22l463 742h45l-463 -742h-45z" />
    <glyph glyph-name="ampersand" unicode="&#x26;" horiz-adv-x="722" 
d="M666 123l12 -5c-25 -61 -72 -130 -138 -130c-71 0 -114 69 -145 123l-57 -56c-20 -19 -75 -67 -142 -67c-60 0 -152 59 -152 173c0 96 75 162 219 217c-13 29 -22 73 -22 110c0 149 120 170 150 170c56 0 106 -31 106 -99c0 -63 -53 -112 -104 -137l-48 -21
c32 -70 67 -152 101 -205c37 53 97 118 159 118c54 0 73 -29 73 -61c0 -28 -19 -56 -53 -56c-40 0 -55 29 -55 51c0 10 2 17 2 24c0 8 -5 12 -12 12c-25 0 -96 -79 -107 -99c28 -48 75 -143 140 -143c21 0 46 22 73 81zM364 99l23 24c-47 78 -87 158 -119 243
c-69 -29 -140 -65 -140 -151c0 -99 90 -173 136 -173c37 0 75 30 100 57zM340 412l53 22c30 14 88 66 88 123c0 52 -30 85 -80 85c-74 0 -88 -70 -88 -108c0 -49 12 -87 27 -122z" />
    <glyph glyph-name="quoteright" unicode="&#x2019;" horiz-adv-x="278" 
d="M155 420l-7 10c19 14 136 78 136 164c0 6 0 24 -6 24c-8 0 -15 -12 -45 -12c-32 0 -55 20 -55 55c0 34 25 59 57 59c51 0 79 -40 79 -89c0 -125 -136 -194 -159 -211z" />
    <glyph glyph-name="parenleft" unicode="(" horiz-adv-x="333" 
d="M174 -240l-40 -16c-24 85 -38 168 -38 251c0 300 97 535 317 746l27 -24c-189 -182 -302 -432 -302 -697c0 -103 13 -169 36 -260z" />
    <glyph glyph-name="parenright" unicode=")" horiz-adv-x="333" 
d="M-76 -256l-27 24c189 182 302 432 302 697c0 103 -13 169 -36 260l40 16c24 -85 38 -168 38 -251c0 -300 -97 -535 -317 -746z" />
    <glyph glyph-name="asterisk" unicode="*" horiz-adv-x="500" 
d="M293 584c0 54 -19 80 -19 87c0 4 2 6 7 6c9 0 21 -7 27 -14c4 15 17 41 28 41c8 0 11 -12 11 -24c0 -10 -1 -21 -1 -25c6 3 13 6 22 6c7 0 10 -3 10 -7c0 -9 -58 -57 -81 -160c135 12 145 62 163 62c6 0 9 -5 9 -10c0 -8 -3 -17 -10 -25c19 1 52 -2 52 -16
c0 -10 -29 -19 -44 -22c4 -6 13 -15 13 -24c0 -4 -3 -8 -6 -8c-17 0 -56 33 -135 33c-13 0 -26 -3 -41 -4c40 -108 108 -127 108 -138c0 -8 -5 -12 -24 -12h-9c2 -5 5 -19 5 -30c0 -10 0 -19 -10 -19c-13 0 -26 27 -30 34c-3 -5 -18 -21 -24 -21c-5 0 -6 5 -6 10s4 23 4 49
c0 30 -6 73 -29 123c-58 -47 -92 -116 -92 -138c0 -7 -3 -10 -8 -10s-15 12 -16 28c-14 -9 -31 -17 -41 -17c-7 0 -10 2 -10 8c0 12 17 31 23 38c-7 1 -26 7 -26 15c0 4 1 11 15 11c13 0 87 24 146 76c-67 41 -112 45 -141 45c-9 0 -16 -1 -23 -1s-9 5 -9 9c0 8 15 18 24 22
c-14 8 -32 30 -32 37c0 6 4 8 10 8c13 0 27 -6 42 -12c-2 5 -3 10 -3 17c0 9 4 13 10 13c14 0 32 -68 129 -126c11 33 12 62 12 85z" />
    <glyph glyph-name="plus" unicode="+" horiz-adv-x="600" 
d="M270 283v223h60v-223h223v-60h-223v-223h-60v223h-223v60h223z" />
    <glyph glyph-name="comma" unicode="," horiz-adv-x="278" 
d="M12 -192l-7 10c19 14 136 78 136 164c0 6 0 24 -6 24c-8 0 -15 -12 -45 -12c-32 0 -55 20 -55 55c0 34 25 59 57 59c51 0 79 -40 79 -89c0 -125 -136 -194 -159 -211z" />
    <glyph glyph-name="hyphen" unicode="-" horiz-adv-x="389" 
d="M298 214h-238l16 54h238z" />
    <glyph glyph-name="period" unicode="." horiz-adv-x="278" 
d="M35 47c0 35 23 73 61 73c31 0 53 -25 53 -54c0 -36 -23 -72 -63 -72c-31 0 -51 23 -51 53z" />
    <glyph glyph-name="slash" unicode="/" horiz-adv-x="278" 
d="M-80 -16l375 736h63l-375 -736h-63z" />
    <glyph glyph-name="zero" unicode="0" 
d="M140 96c0 -57 28 -92 82 -92c81 0 130 125 170 245c30 91 74 253 74 349c0 54 -19 96 -69 96c-87 0 -147 -145 -180 -245c-29 -87 -77 -263 -77 -353zM68 238c0 185 136 472 322 472c110 0 154 -105 154 -223c0 -226 -158 -499 -322 -499c-113 0 -154 142 -154 250z" />
    <glyph glyph-name="one" unicode="1" 
d="M83 0l4 16h99l180 615c-68 -43 -139 -80 -214 -110l-6 13c98 42 250 130 342 192l-206 -710h101l-3 -16h-297z" />
    <glyph glyph-name="two" unicode="2" 
d="M457 139l13 -6c-26 -44 -49 -88 -71 -133h-399c66 182 262 236 340 314c60 60 102 130 102 244c0 98 -64 136 -137 136c-74 0 -161 -48 -161 -112c0 -47 75 -57 75 -111c0 -12 -8 -39 -37 -39c-47 0 -62 59 -62 101c0 116 92 177 204 177c118 0 220 -51 220 -177
c0 -241 -358 -271 -485 -449h353c10 0 40 48 45 55z" />
    <glyph glyph-name="three" unicode="3" 
d="M165 377l5 17c15 -1 40 -1 76 -1c118 0 196 55 196 202c0 78 -52 99 -116 99c-74 0 -120 -49 -120 -70c0 -10 4 -12 25 -16c24 -5 35 -21 35 -42c0 -29 -24 -48 -50 -48c-40 0 -52 33 -52 53c0 99 107 139 178 139c96 0 196 -41 196 -150s-136 -168 -239 -175v-2
c107 -6 180 -53 180 -161c0 -137 -134 -234 -262 -234c-107 0 -181 40 -181 131c0 43 34 83 79 83c29 0 51 -22 51 -52c0 -29 -21 -50 -46 -50c-20 0 -23 7 -37 7s-23 -6 -23 -21c0 -35 55 -82 129 -82c151 0 188 148 188 268c0 111 -122 103 -212 105z" />
    <glyph glyph-name="four" unicode="4" 
d="M146 0l4 16h93l60 190h-303l481 520l11 -10l-414 -450h243l74 233l111 59l-92 -292h122l-18 -60h-122l-60 -190h93l-4 -16h-279z" />
    <glyph glyph-name="five" unicode="5" 
d="M127 319l115 394c56 -31 120 -44 184 -44c48 0 88 15 121 51c-9 -96 -90 -135 -177 -135c-48 0 -95 7 -141 21l-65 -212l2 -2c44 49 85 68 152 68c110 0 181 -65 181 -175c0 -118 -127 -297 -333 -297c-64 0 -143 37 -143 112c0 45 27 74 58 74c29 0 52 -20 52 -51
c0 -57 -56 -47 -56 -74c0 -32 53 -45 100 -45c164 0 220 212 220 314c0 77 -51 112 -115 112c-70 0 -120 -49 -144 -111h-11z" />
    <glyph glyph-name="six" unicode="6" 
d="M546 710l-3 -16c-231 -12 -291 -123 -357 -332l2 -2c42 53 98 71 165 71c103 0 174 -72 174 -172c0 -146 -127 -271 -265 -271c-146 0 -204 107 -204 238c0 177 112 484 488 484zM136 116c0 -74 49 -112 119 -112c69 0 98 41 125 96c41 84 57 172 57 216
c0 55 -27 99 -106 99c-153 0 -195 -172 -195 -299z" />
    <glyph glyph-name="seven" unicode="7" 
d="M124 529l-15 5c26 62 51 125 69 186l12 -5l-5 -14c42 -30 154 -33 200 -33c66 0 168 7 230 52l9 -10c-74 -93 -366 -464 -366 -585c0 -51 76 -13 76 -83c0 -30 -23 -54 -53 -54c-48 0 -65 41 -65 84c0 129 236 441 309 534l-2 2c-48 -27 -167 -36 -217 -36
c-41 0 -98 4 -152 21z" />
    <glyph glyph-name="eight" unicode="8" 
d="M400 138c6 85 -83 153 -143 214c-87 -28 -192 -103 -192 -206c0 -80 70 -142 165 -142c79 0 170 40 170 134zM242 578c0 -75 67 -131 118 -179c113 57 165 112 165 185s-63 110 -136 110c-71 0 -147 -37 -147 -116zM170 515c0 72 71 195 222 195c94 0 149 -58 149 -120
c0 -101 -65 -142 -171 -200c57 -50 108 -115 108 -197c0 -79 -63 -205 -236 -205c-119 0 -193 66 -193 159c0 96 102 184 195 216c-46 41 -74 90 -74 152z" />
    <glyph glyph-name="nine" unicode="9" 
d="M58 -12l3 16c231 12 291 123 357 332l-2 2c-42 -53 -98 -71 -165 -71c-103 0 -174 72 -174 172c0 146 127 271 265 271c146 0 204 -107 204 -238c0 -177 -112 -484 -488 -484zM468 582c0 74 -49 112 -119 112c-69 0 -98 -41 -125 -96c-41 -84 -57 -172 -57 -216
c0 -55 27 -99 106 -99c153 0 195 172 195 299z" />
    <glyph glyph-name="colon" unicode=":" horiz-adv-x="278" 
d="M110 319c0 35 23 73 61 73c31 0 53 -25 53 -54c0 -36 -23 -72 -63 -72c-31 0 -51 23 -51 53zM35 47c0 35 23 73 61 73c31 0 53 -25 53 -54c0 -36 -23 -72 -63 -72c-31 0 -51 23 -51 53z" />
    <glyph glyph-name="semicolon" unicode=";" horiz-adv-x="278" 
d="M12 -192l-7 10c19 14 136 78 136 164c0 6 0 24 -6 24c-8 0 -15 -12 -45 -12c-32 0 -55 20 -55 55c0 34 25 59 57 59c51 0 79 -40 79 -89c0 -125 -136 -194 -159 -211zM110 319c0 35 23 73 61 73c31 0 53 -25 53 -54c0 -36 -23 -72 -63 -72c-31 0 -51 23 -51 53z" />
    <glyph glyph-name="less" unicode="&#x3c;" horiz-adv-x="600" 
d="M553 -8l-506 231v60l506 231v-62l-435 -199l435 -199v-62z" />
    <glyph glyph-name="equal" unicode="=" horiz-adv-x="600" 
d="M47 321v60h506v-60h-506zM47 125v60h506v-60h-506z" />
    <glyph glyph-name="greater" unicode="&#x3e;" horiz-adv-x="600" 
d="M47 514l506 -231v-60l-506 -231v62l435 199l-435 199v62z" />
    <glyph glyph-name="question" unicode="?" horiz-adv-x="389" 
d="M116 175l-10 4l47 133c34 98 45 106 82 123c62 28 188 62 188 152c0 69 -64 107 -127 107c-59 0 -106 -37 -106 -73c0 -7 5 -14 22 -16c9 -1 34 -10 34 -38c0 -26 -19 -45 -47 -45c-32 0 -45 31 -45 58c0 65 59 124 146 124c81 0 147 -53 147 -153
c0 -97 -64 -142 -130 -176l-126 -65c-27 -14 -34 -24 -51 -71zM28 47c0 35 23 73 61 73c31 0 53 -25 53 -54c0 -36 -23 -72 -63 -72c-31 0 -51 23 -51 53z" />
    <glyph glyph-name="at" unicode="@" horiz-adv-x="800" 
d="M351 285c0 -65 28 -90 64 -90c61 0 133 113 133 245c0 32 -14 58 -49 58c-49 0 -148 -80 -148 -213zM60 336c0 229 172 384 389 384c192 0 345 -134 345 -314c0 -132 -71 -253 -192 -253c-52 0 -99 21 -99 80h-2c-8 -18 -63 -80 -120 -80c-28 0 -102 8 -102 132
c0 135 93 255 205 255c40 0 68 -30 79 -60h2l11 47h73l-71 -276c-2 -9 -3 -16 -3 -29c0 -15 8 -39 43 -39c94 0 146 119 146 222c0 123 -114 279 -315 279c-179 0 -305 -123 -305 -359c0 -153 121 -305 316 -305c102 0 164 19 221 48l10 -21c-83 -47 -165 -63 -230 -63
c-279 0 -401 208 -401 352z" />
    <glyph glyph-name="A" unicode="A" horiz-adv-x="611" 
d="M-65 0l3 16h24c14 0 33 2 52 32l436 690h14l22 -722h60l-3 -16h-245l4 16h87l-7 236h-218l-123 -198c-9 -13 -12 -20 -12 -25c0 -8 10 -13 45 -13h31l-4 -16h-166zM382 268l-6 317h-2l-198 -317h206z" />
    <glyph glyph-name="B" unicode="B" horiz-adv-x="667" 
d="M-34 0l4 16h77l188 672h-90l4 16h343c82 0 166 -41 166 -145c0 -100 -105 -173 -230 -196v-2c91 -4 169 -48 169 -151c0 -130 -153 -210 -300 -210h-331zM243 354l-95 -338h138c72 0 113 19 142 50c42 46 67 133 67 183c0 103 -87 105 -167 105h-85zM336 688l-89 -318
h131c123 0 178 120 178 219c0 74 -36 99 -105 99h-115z" />
    <glyph glyph-name="C" unicode="C" horiz-adv-x="667" 
d="M711 683l-54 -244l-16 4c9 30 13 62 13 93c0 94 -86 168 -178 168c-204 0 -300 -366 -300 -509c0 -83 34 -195 169 -195c162 0 237 141 259 177l16 -8c-18 -33 -103 -185 -280 -185c-144 0 -266 114 -266 284c0 274 226 452 408 452c102 0 144 -71 177 -71
c28 0 29 24 36 37z" />
    <glyph glyph-name="D" unicode="D" horiz-adv-x="722" 
d="M-34 0l4 16h77l188 672h-90l4 16h299c181 0 256 -144 256 -269c0 -207 -157 -435 -380 -435h-358zM336 688l-188 -672h170c208 0 290 404 290 498c0 135 -70 174 -170 174h-102z" />
    <glyph glyph-name="E" unicode="E" horiz-adv-x="574" 
d="M-34 0l4 16h77l188 672h-90l4 16h499l-31 -189h-16c4 22 6 45 6 60c0 100 -71 113 -137 113h-133l-84 -299h42c81 0 102 2 127 111h16l-61 -265h-16c9 34 17 72 17 87c0 23 -12 51 -57 51h-72l-100 -357h121c134 0 238 41 268 200h16l-47 -216h-541z" />
    <glyph glyph-name="F" unicode="F" 
d="M-34 0l4 16h77l188 672h-90l4 16h476l-31 -194h-15c2 16 5 33 5 53c0 90 -49 125 -164 125h-88l-84 -299h21c81 0 102 2 127 111h16l-61 -265h-16c9 34 17 72 17 87c0 23 -12 51 -57 51h-52l-101 -357h93l-4 -16h-265z" />
    <glyph glyph-name="G" unicode="G" horiz-adv-x="722" 
d="M739 652l-75 -246l-16 4c5 22 10 50 10 83c0 131 -79 211 -183 211c-205 0 -311 -418 -311 -529c0 -95 44 -175 167 -175c95 0 129 58 136 80l47 155h-74l4 16h253l-4 -16h-72l-38 -126c-16 -55 -174 -125 -252 -125c-139 0 -257 114 -257 284c0 274 226 452 408 452
c125 0 168 -99 207 -99c27 0 27 15 37 36z" />
    <glyph glyph-name="H" unicode="H" horiz-adv-x="778" 
d="M-34 0l4 16h77l188 672h-90l4 16h274l-4 -16h-83l-89 -318h344l89 318h-87l4 16h265l-4 -16h-77l-188 -672h90l-4 -16h-274l4 16h83l95 338h-344l-95 -338h87l-4 -16h-265z" />
    <glyph glyph-name="I" unicode="I" horiz-adv-x="333" 
d="M-34 0l4 16h77l188 672h-90l4 16h274l-4 -16h-83l-188 -672h87l-4 -16h-265z" />
    <glyph glyph-name="J" unicode="J" horiz-adv-x="389" 
d="M119 44l179 644h-90l4 16h274l-4 -16h-83l-159 -573c-25 -88 -123 -191 -216 -191c-55 0 -92 41 -92 95c0 44 28 76 66 76c36 0 61 -19 61 -60c0 -30 -27 -54 -58 -54c-10 0 -18 6 -24 6c-4 0 -9 -6 -9 -13c0 -17 26 -34 50 -34c72 0 90 66 101 104z" />
    <glyph glyph-name="K" unicode="K" horiz-adv-x="667" 
d="M-34 0l4 16h77l188 672h-90l4 16h274l-4 -16h-83l-92 -329h1l353 291c13 11 16 17 16 23c0 8 -6 15 -46 15h-28l4 16h218l-4 -16c-84 0 -110 -21 -163 -64l-280 -228l242 -380h59l-4 -16h-254l3 16h80l-202 324l-91 -324h87l-4 -16h-265z" />
    <glyph glyph-name="L" unicode="L" horiz-adv-x="611" 
d="M-34 0l4 16h77l188 672h-90l4 16h274l-4 -16h-83l-188 -672h125c164 0 248 74 303 247l15 -4l-81 -259h-544z" />
    <glyph glyph-name="M" unicode="M" horiz-adv-x="833" 
d="M-35 0l4 16c14 0 51 0 63 8c22 15 25 29 71 193l133 471h-92l4 16h193l24 -556h2l375 556h181l-4 -16h-82l-188 -672h86l-4 -16h-272l4 16h88l177 632l-2 2l-438 -650h-11l-28 662h-2l-166 -592c-2 -7 -4 -15 -4 -23c0 -19 17 -31 74 -31l-4 -16h-182z" />
    <glyph glyph-name="N" unicode="N" horiz-adv-x="722" 
d="M-34 0l4 16h27c52 0 59 24 100 171l141 501h-91l3 16h194l210 -587h2l131 455c10 34 21 73 21 90c0 20 -12 25 -79 26l4 16h182l-4 -16h-10c-55 0 -66 -11 -78 -52l-180 -628l-45 -14l-246 680h-2l-159 -575c-7 -25 -13 -42 -13 -51c0 -11 2 -32 51 -32h25l-4 -16h-184z
" />
    <glyph glyph-name="O" unicode="O" horiz-adv-x="722" 
d="M471 720c99 0 232 -88 232 -290c0 -180 -164 -446 -377 -446c-126 0 -252 88 -252 290c0 166 154 446 397 446zM323 0c90 0 154 59 201 168c54 126 89 300 89 371c0 144 -86 165 -143 165c-118 0 -178 -87 -223 -195c-44 -104 -77 -267 -77 -341c0 -136 77 -168 153 -168
z" />
    <glyph glyph-name="P" unicode="P" horiz-adv-x="611" 
d="M-34 0l4 16h77l188 672h-90l4 16h296c105 0 194 -42 194 -158c0 -160 -154 -220 -282 -220h-122l-87 -310h97l-3 -16h-276zM336 688l-97 -346h102c144 0 190 142 190 235c0 79 -30 111 -110 111h-85z" />
    <glyph glyph-name="Q" unicode="Q" horiz-adv-x="722" 
d="M349 -15l-24 -85c-3 -11 -7 -23 -7 -35c0 -62 85 -69 130 -69h32v-13c-21 -1 -43 -3 -64 -3c-71 0 -182 18 -182 110c0 15 4 31 21 103c-92 26 -181 111 -181 281c0 166 154 446 397 446c99 0 232 -88 232 -290c0 -180 -161 -430 -354 -445zM323 0c90 0 154 59 201 168
c54 126 89 300 89 371c0 144 -86 165 -143 165c-118 0 -178 -87 -223 -195c-44 -104 -77 -267 -77 -341c0 -136 77 -168 153 -168z" />
    <glyph glyph-name="R" unicode="R" horiz-adv-x="611" 
d="M336 688l-89 -318h115c102 0 158 142 158 238c0 40 -16 80 -86 80h-98zM-34 0l4 16h77l188 672h-90l4 16h310c124 0 157 -87 157 -137c0 -132 -125 -191 -226 -207v-2c61 -8 110 -55 110 -117c0 -60 -33 -158 -33 -197c0 -11 3 -26 25 -26c43 0 56 31 66 42l14 -7
c-13 -19 -41 -59 -93 -59c-77 0 -102 62 -102 97c0 29 39 173 39 203c0 43 -29 60 -71 60h-102l-95 -338h87l-4 -16h-265z" />
    <glyph glyph-name="S" unicode="S" 
d="M-10 3l69 251l16 -3c-8 -29 -13 -59 -13 -89c0 -93 78 -162 181 -162c171 0 190 143 190 174c0 188 -291 104 -291 318c0 64 33 228 215 228c95 0 128 -56 166 -56c17 0 24 23 27 35l16 -6l-57 -210l-16 4c5 25 10 50 10 76c0 89 -58 141 -156 141
c-88 0 -163 -60 -163 -148c0 -156 309 -94 309 -322c0 -92 -63 -250 -259 -250c-101 0 -145 60 -188 60c-22 0 -31 -25 -41 -44z" />
    <glyph glyph-name="T" unicode="T" horiz-adv-x="667" 
d="M131 0l4 16h76l188 672h-62c-145 0 -216 -169 -227 -217h-16l70 233h592l-66 -233h-16c8 32 16 65 16 98c0 89 -45 119 -128 119h-62l-190 -672h86l-4 -16h-261z" />
    <glyph glyph-name="U" unicode="U" horiz-adv-x="722" 
d="M818 704l-4 -16c-47 0 -72 -1 -85 -46l-139 -478c-28 -96 -109 -180 -276 -180c-113 0 -233 49 -233 157c0 35 52 223 59 248l82 299h-90l4 16h274l-4 -16h-83l-88 -307c-34 -119 -64 -229 -64 -265c0 -79 70 -116 147 -116c137 0 222 55 256 170l114 390
c7 23 24 84 24 101c0 19 -7 27 -70 27h-22l4 16h194z" />
    <glyph glyph-name="V" unicode="V" 
d="M116 -2l113 690h-76l4 16h277l-3 -16h-105l-85 -518l2 -4l349 472c10 13 17 22 17 33c0 15 -39 17 -67 17l4 16h140l-4 -16c-31 0 -36 -3 -52 -24l-499 -670z" />
    <glyph glyph-name="W" unicode="W" horiz-adv-x="833" 
d="M116 -2l113 690h-73l4 16h251l-4 -16h-81l-89 -530l2 -2l256 337l29 195h-80l4 16h268l-3 -16h-95l-83 -527l2 -2l336 470c16 22 26 36 26 42c0 15 -23 17 -68 17l3 16h142l-4 -16c-34 0 -37 -4 -65 -42l-475 -652l-13 4l71 462l-2 2l-356 -468z" />
    <glyph glyph-name="X" unicode="X" 
d="M-57 0l2 16c69 0 80 1 114 46l205 271l-88 355h-78l4 16h246l-3 -16h-72l65 -260l141 191c9 13 25 34 25 45c0 23 -23 24 -48 24h-25l4 16h178l-3 -16h-8c-35 0 -53 -6 -69 -28l-190 -251l99 -393h63l-3 -16h-241l4 16h80l-76 297l-158 -210c-12 -15 -41 -54 -41 -64
c0 -14 11 -23 42 -23h20l-4 -16h-185z" />
    <glyph glyph-name="Y" unicode="Y" horiz-adv-x="500" 
d="M274 688l24 -377h2l224 308c19 27 32 45 32 57s-35 12 -63 12h-14l4 16h155l-4 -16h-8c-23 0 -35 -5 -49 -24l-272 -374l-76 -274h87l-4 -16h-265l4 16h77l81 281l-28 391h-76l4 16h251l-4 -16h-82z" />
    <glyph glyph-name="Z" unicode="Z" horiz-adv-x="611" 
d="M-7 0l538 688h-157c-153 0 -206 -84 -247 -183h-16l61 199h487l-538 -688h183c138 0 204 54 256 192h16l-61 -208h-522z" />
    <glyph glyph-name="bracketleft" unicode="[" horiz-adv-x="333" 
d="M-13 -239l266 968h187l-11 -42h-144l-243 -884h145l-10 -42h-190z" />
    <glyph glyph-name="backslash" unicode="\" horiz-adv-x="278" 
d="M103 720l195 -736h-62l-195 736h62z" />
    <glyph glyph-name="bracketright" unicode="]" horiz-adv-x="333" 
d="M346 729l-266 -968h-187l11 42h144l243 884h-145l10 42h190z" />
    <glyph glyph-name="asciicircum" unicode="^" horiz-adv-x="600" 
d="M111 333l183 365h52l183 -365h-62l-147 295l-147 -295h-62z" />
    <glyph glyph-name="underscore" unicode="_" horiz-adv-x="500" 
d="M0 -125v50h500v-50h-500z" />
    <glyph glyph-name="quoteleft" unicode="&#x2018;" horiz-adv-x="278" 
d="M291 720l7 -10c-19 -14 -136 -78 -136 -164c0 -6 0 -24 6 -24c8 0 15 12 45 12c32 0 55 -20 55 -55c0 -34 -25 -59 -57 -59c-51 0 -79 40 -79 89c0 125 136 194 159 211z" />
    <glyph glyph-name="a" unicode="a" 
d="M114 84c0 -53 27 -80 72 -80c85 0 134 81 162 174c25 82 45 129 45 149c0 36 -30 89 -92 89c-128 0 -187 -255 -187 -332zM501 410l-99 -318c-5 -16 -11 -36 -11 -52s8 -28 24 -28c35 0 79 67 93 86l10 -10c-13 -18 -57 -100 -121 -100c-68 0 -71 59 -72 90h-2
c-24 -41 -80 -90 -138 -90c-95 0 -149 77 -149 170c0 140 144 274 269 274c65 0 91 -53 98 -83h2l19 61h77z" />
    <glyph glyph-name="b" unicode="b" 
d="M81 207l140 487h-68l4 16h45c39 0 79 6 111 25l-114 -389l2 -2c37 55 107 88 165 88c76 0 139 -43 139 -161c0 -83 -95 -283 -285 -283c-81 0 -154 48 -154 128c0 31 8 66 15 91zM427 330c0 48 -14 86 -73 86c-47 0 -96 -26 -130 -64c-63 -71 -88 -234 -88 -271
c0 -27 27 -77 93 -77c155 0 198 286 198 326z" />
    <glyph glyph-name="c" unicode="c" horiz-adv-x="444" 
d="M380 153l14 -5c-13 -32 -87 -160 -201 -160c-54 0 -157 41 -157 170c0 134 134 274 269 274c68 0 110 -33 110 -72c0 -33 -18 -51 -46 -51c-26 0 -44 16 -44 47c0 27 11 37 11 44c0 9 -5 16 -35 16c-141 0 -181 -248 -181 -322c0 -50 22 -90 77 -90c99 0 174 128 183 149
z" />
    <glyph glyph-name="d" unicode="d" 
d="M434 694l4 16h45c39 0 79 6 111 25l-196 -657c-3 -10 -8 -27 -7 -41c0 -14 8 -25 25 -25c24 0 54 37 67 54l24 33l12 -7l-34 -47c-24 -34 -61 -57 -103 -57c-46 0 -63 51 -57 90l-2 2c-21 -28 -67 -92 -147 -92c-78 0 -140 64 -140 171c0 151 154 273 256 273
c74 0 102 -50 113 -81h2l95 343h-68zM114 86c1 -48 23 -82 69 -82c48 0 97 34 128 77c13 18 84 219 84 249c0 23 -33 86 -85 86c-132 0 -198 -224 -196 -330z" />
    <glyph glyph-name="e" unicode="e" horiz-adv-x="444" 
d="M374 115l10 -7c-21 -29 -82 -120 -191 -120c-54 0 -157 41 -157 170c0 154 144 274 269 274c50 0 109 -24 109 -87c0 -77 -94 -134 -207 -134c-26 0 -52 5 -76 15c-10 -38 -17 -80 -17 -105c0 -66 21 -117 94 -117c86 0 149 89 166 111zM348 355c0 35 -23 61 -60 61
c-90 0 -130 -103 -153 -175c16 -5 42 -14 72 -14c108 0 141 87 141 128z" />
    <glyph glyph-name="f" unicode="f" horiz-adv-x="278" 
d="M39 394l4 16h88c29 114 77 203 131 259c49 50 91 73 135 73c36 0 67 -25 67 -62c0 -27 -22 -46 -48 -46c-29 0 -48 21 -48 43c0 27 16 32 16 41c0 8 -8 8 -14 8c-60 0 -114 -154 -127 -202l-31 -114h105l-3 -16h-105c-59 -204 -104 -396 -149 -487
c-68 -138 -108 -165 -171 -165c-34 0 -60 30 -60 58c0 30 22 50 45 50c27 0 45 -17 45 -41c0 -29 -19 -29 -19 -41c0 -7 6 -10 15 -10c17 0 56 15 83 98c35 108 78 352 129 538h-88z" />
    <glyph glyph-name="g" unicode="g" horiz-adv-x="500" 
d="M73 255c0 103 106 177 200 177c46 0 98 -27 121 -71c8 17 36 71 87 71c36 0 47 -26 47 -48c0 -18 -9 -42 -39 -42c-27 0 -39 17 -39 40c0 9 3 12 3 16c0 5 -5 5 -8 5c-13 0 -36 -33 -45 -59c9 -20 10 -41 10 -61c0 -76 -86 -162 -195 -162c-24 0 -54 6 -71 15
c-40 -8 -84 -29 -84 -61c0 -22 11 -35 75 -35c49 0 100 4 152 4c64 0 134 -8 134 -105c0 -84 -87 -219 -264 -219c-97 0 -187 42 -187 116c0 70 51 109 107 134v3c-36 12 -53 31 -53 69c0 59 57 91 108 101c-36 26 -59 68 -59 112zM332 -32h-228c-14 0 -92 -35 -92 -124
c0 -41 38 -108 159 -108c138 0 220 103 220 177c0 47 -37 55 -59 55zM344 344c0 45 -27 72 -70 72c-93 0 -129 -159 -129 -209c0 -45 30 -70 74 -70c95 0 125 186 125 207z" />
    <glyph glyph-name="h" unicode="h" 
d="M24 0l203 694h-68l4 16h45c39 0 79 6 111 25l-129 -441h2c44 73 120 138 198 138c64 0 94 -36 94 -81c0 -43 -95 -277 -95 -302c0 -16 7 -31 23 -31c43 0 84 68 100 87l10 -7c-20 -29 -67 -104 -140 -104c-47 0 -65 29 -65 74c0 62 95 273 95 315c0 20 -11 33 -38 33
c-47 0 -170 -74 -210 -210l-60 -206h-80z" />
    <glyph glyph-name="i" unicode="i" horiz-adv-x="278" 
d="M72 394l3 16h27c43 0 85 4 128 22l-104 -326c-7 -21 -16 -47 -16 -62c0 -12 7 -26 24 -26c53 0 99 68 111 86l12 -8c-13 -22 -72 -102 -150 -102c-32 0 -69 18 -69 67c0 19 7 39 13 60l85 273h-64zM295 666c0 -33 -27 -74 -64 -74c-25 0 -32 21 -32 34c0 33 27 74 58 74
s38 -21 38 -34z" />
    <glyph glyph-name="j" unicode="j" horiz-adv-x="278" 
d="M91 394l3 16h27c43 0 85 4 128 22l-118 -373c-49 -154 -99 -232 -159 -296c-29 -31 -59 -43 -96 -43c-27 0 -57 21 -57 55c0 26 16 54 42 54c24 0 42 -16 42 -45c0 -20 -12 -27 -12 -35c0 -11 5 -13 15 -13c48 0 75 95 92 153c51 171 103 337 155 505h-62zM314 666
c0 -33 -27 -74 -64 -74c-25 0 -32 21 -32 34c0 33 27 74 58 74s38 -21 38 -34z" />
    <glyph glyph-name="k" unicode="k" horiz-adv-x="500" 
d="M24 0l203 694h-68l4 16h45c39 0 79 6 111 25l-137 -457c54 -1 85 13 107 37c47 51 51 142 133 142c38 0 54 -22 54 -46c0 -29 -22 -44 -44 -44c-45 0 -34 54 -52 54c-37 0 -47 -137 -150 -152v-2c105 -3 123 -93 123 -205c0 -16 5 -38 23 -38c44 0 73 77 79 109l16 -4
c-20 -66 -56 -135 -135 -135c-67 0 -71 77 -71 104c0 115 -3 164 -76 164h-11l-76 -262h-78z" />
    <glyph glyph-name="l" unicode="l" horiz-adv-x="278" 
d="M54 138l166 556h-68l4 16h45c39 0 79 6 111 25l-192 -643c-6 -20 -12 -36 -12 -48s7 -26 24 -26c53 0 99 68 111 86l12 -8c-13 -22 -72 -102 -150 -102c-32 0 -69 18 -69 67c0 18 7 41 18 77z" />
    <glyph glyph-name="m" unicode="m" horiz-adv-x="778" 
d="M24 0l116 394h-62l4 16h21c43 0 85 4 128 22l-41 -138h2c40 68 116 138 186 138c44 0 76 -28 76 -69c0 -24 -2 -43 -9 -63h2c52 73 114 132 172 132c64 0 94 -36 94 -81c0 -43 -95 -277 -95 -302c0 -16 7 -31 23 -31c43 0 84 68 100 87l10 -7c-20 -29 -67 -104 -140 -104
c-47 0 -65 29 -65 74c0 62 95 273 95 315c0 20 -11 33 -38 33c-49 0 -160 -125 -180 -192l-66 -224h-81l84 287c24 80 26 94 26 108s-9 21 -22 21c-77 0 -175 -130 -195 -197l-64 -219h-81z" />
    <glyph glyph-name="n" unicode="n" 
d="M24 0l116 394h-62l4 16h21c43 0 85 4 128 22l-41 -138h2c44 73 120 138 198 138c64 0 94 -36 94 -81c0 -43 -95 -277 -95 -302c0 -16 7 -31 23 -31c43 0 84 68 100 87l10 -7c-20 -29 -67 -104 -140 -104c-47 0 -65 29 -65 74c0 62 95 273 95 315c0 20 -11 33 -38 33
c-47 0 -170 -74 -210 -210l-60 -206h-80z" />
    <glyph glyph-name="o" unicode="o" horiz-adv-x="500" 
d="M36 163c0 125 112 269 260 269c70 0 153 -60 153 -161c0 -162 -131 -283 -251 -283c-110 0 -162 78 -162 175zM290 416c-51 0 -85 -31 -107 -69c-21 -36 -75 -209 -75 -256c0 -48 30 -87 87 -87c62 0 93 46 102 60c26 44 80 214 80 272c0 49 -30 80 -87 80z" />
    <glyph glyph-name="p" unicode="p" 
d="M-119 -270l4 16h54l188 648h-60l4 16h22c51 0 92 2 118 22l-18 -78h2c34 48 85 78 142 78c81 0 154 -66 154 -170c0 -133 -124 -274 -260 -274c-63 0 -106 31 -116 79h-2l-91 -321h60l-4 -16h-197zM413 315c0 70 -34 101 -82 101c-86 0 -140 -75 -165 -163l-33 -114
c-6 -22 -8 -39 -8 -45c0 -60 49 -90 96 -90c127 0 192 220 192 311z" />
    <glyph glyph-name="q" unicode="q" 
d="M156 -270l4 16h60l98 319l-2 2c-24 -29 -82 -79 -140 -79c-78 0 -140 64 -140 171c0 151 150 273 259 273c77 0 99 -50 110 -79h2l17 57h78l-201 -664h60l-4 -16h-201zM114 86c1 -48 23 -82 69 -82c48 0 97 34 128 77c13 18 84 219 84 246c0 14 -13 89 -94 89
c-126 0 -190 -236 -187 -330z" />
    <glyph glyph-name="r" unicode="r" horiz-adv-x="389" 
d="M31 0l116 394h-69l4 16h37c51 0 92 2 119 22l-41 -124l2 -2c27 49 98 120 161 120c44 0 64 -24 64 -50c0 -33 -27 -50 -52 -50c-29 0 -38 19 -38 37c0 19 5 24 5 29c0 7 -4 10 -13 10c-47 0 -130 -107 -144 -154l-73 -248h-78z" />
    <glyph glyph-name="s" unicode="s" horiz-adv-x="389" 
d="M108 294c0 52 58 138 149 138c62 0 96 -36 96 -81c0 -31 -22 -47 -48 -47c-29 0 -42 21 -42 42c0 27 19 40 33 49c0 12 -10 21 -43 21c-40 0 -85 -18 -85 -85c0 -85 136 -82 136 -211c0 -60 -54 -132 -169 -132c-89 0 -118 65 -118 101c0 31 21 60 51 60s45 -24 45 -42
c0 -50 -49 -36 -49 -66c0 -14 15 -37 74 -37c51 0 94 28 94 83c0 84 -124 101 -124 207z" />
    <glyph glyph-name="t" unicode="t" horiz-adv-x="333" 
d="M69 138l80 256h-73l5 16h73l43 137c33 0 64 8 90 28l-52 -165h117l-5 -16h-117l-98 -310c-3 -11 -7 -30 -7 -45s10 -29 31 -29c32 0 103 49 150 118l11 -8c-43 -54 -106 -126 -182 -126c-48 0 -82 19 -82 71c0 20 7 45 16 73z" />
    <glyph glyph-name="u" unicode="u" 
d="M499 410l-105 -325c-6 -17 -8 -35 -8 -43c0 -9 9 -24 28 -24c36 0 58 34 91 83l12 -7c-32 -51 -66 -100 -133 -100c-42 0 -70 24 -70 65c0 18 11 50 18 74h-2c-61 -80 -124 -139 -203 -139c-47 0 -90 12 -90 76c0 17 11 55 16 72l83 252h-64l4 16h27c43 0 85 4 128 22
l-112 -347c-6 -18 -10 -35 -10 -41c0 -21 13 -34 39 -34c57 0 173 97 209 210l61 190h81z" />
    <glyph glyph-name="v" unicode="v" horiz-adv-x="444" 
d="M55 124l82 270h-62l4 16h26c43 0 85 4 128 22l-102 -329c-8 -25 -10 -41 -10 -52c0 -23 11 -33 34 -33c101 0 228 201 228 279c0 52 -68 25 -68 84c0 30 19 51 49 51c39 0 55 -38 55 -73c0 -109 -145 -365 -293 -365c-41 0 -83 24 -83 69c0 13 9 52 12 61z" />
    <glyph glyph-name="w" unicode="w" horiz-adv-x="722" 
d="M336 179l73 231h79l-101 -340c-3 -12 -5 -21 -5 -24c0 -23 13 -36 36 -36c106 0 243 208 243 287c0 52 -68 25 -68 84c0 30 19 51 49 51c39 0 55 -38 55 -73c0 -109 -145 -365 -293 -365c-49 0 -94 14 -94 74c0 19 4 40 11 57l-2 2c-37 -55 -97 -133 -193 -133
c-41 0 -83 24 -83 69c0 13 9 52 12 61l82 270h-62l4 16h26c43 0 85 4 128 22l-102 -329c-10 -33 -16 -49 -16 -63c0 -19 19 -30 37 -30c84 0 183 165 184 169z" />
    <glyph glyph-name="x" unicode="x" 
d="M74 311l-11 8c40 50 96 113 168 113c75 0 108 -31 116 -101h2c29 47 68 101 132 101c33 0 64 -20 64 -62c0 -25 -13 -51 -42 -51c-24 0 -38 20 -38 35c0 31 19 33 19 49c0 5 -2 13 -15 13c-26 0 -54 -21 -71 -40c-62 -68 -98 -236 -98 -275c0 -30 23 -71 55 -71
c59 0 119 72 140 98l11 -11c-26 -31 -103 -123 -200 -123c-85 0 -84 83 -84 127h-4c-17 -33 -74 -127 -151 -127c-39 0 -64 21 -64 66c0 35 18 63 49 63c24 0 41 -19 42 -40c3 -40 -37 -43 -37 -60c0 -6 6 -13 16 -13c106 0 190 228 190 326c0 38 -15 72 -55 72
c-42 0 -81 -37 -134 -97z" />
    <glyph glyph-name="y" unicode="y" horiz-adv-x="500" 
d="M257 93l107 195c50 91 81 144 133 144c28 0 48 -15 48 -51c0 -26 -19 -45 -44 -45c-19 0 -40 13 -40 35c0 10 6 17 6 26c0 3 -1 5 -4 5c-8 0 -38 -31 -85 -116l-115 -208c-84 -152 -176 -312 -298 -312c-42 0 -72 23 -72 61c0 29 22 51 48 51c23 0 42 -13 42 -45
c0 -25 -17 -29 -17 -40c0 -6 6 -10 17 -10c78 0 171 137 204 199l-49 359c-3 20 -8 49 -27 49c-34 0 -73 -79 -85 -98l-14 5c13 22 65 135 147 135c52 0 60 -58 66 -107l30 -232h2z" />
    <glyph glyph-name="z" unicode="z" horiz-adv-x="444" 
d="M23 43l326 302l-2 2c-35 -13 -94 -21 -135 -21c-47 0 -87 4 -112 5h-5l-22 -46h-17c22 42 38 84 55 128c44 -8 198 -27 242 -27c31 0 52 6 52 13c0 3 -1 6 -1 10c0 9 5 17 14 17s16 -7 16 -15s-5 -14 -19 -27l-331 -304l2 -2c19 5 43 6 76 6c103 0 160 -42 184 -42
c15 0 31 9 31 22c0 24 -36 18 -36 57c0 24 13 36 31 36c23 0 35 -22 35 -50c0 -39 -31 -113 -166 -113c-45 0 -137 36 -187 36c-21 0 -34 -4 -34 -12c0 -5 4 -5 4 -13c0 -6 -4 -11 -15 -11s-15 7 -15 15c0 6 5 12 29 34z" />
    <glyph glyph-name="braceleft" unicode="{" horiz-adv-x="333" 
d="M26 -99l60 218c7 26 12 48 12 65c0 31 -22 50 -69 61c92 18 107 53 127 126l60 218c32 117 77 140 178 140l-8 -34c-80 0 -108 -40 -135 -136l-49 -172c-23 -83 -41 -128 -108 -141v-2c33 -10 46 -32 46 -58c0 -21 -6 -48 -16 -83l-49 -172c-9 -33 -20 -59 -20 -92
c0 -44 54 -44 79 -44l-8 -34c-42 0 -113 2 -113 60c0 27 5 51 13 80z" />
    <glyph glyph-name="bar" unicode="|" horiz-adv-x="222" 
d="M106 -250v1000h60v-1000h-60z" />
    <glyph glyph-name="braceright" unicode="}" horiz-adv-x="333" 
d="M307 589l-60 -218c-7 -26 -12 -48 -12 -65c0 -31 22 -50 69 -60v-1c-92 -18 -107 -53 -127 -126l-60 -218c-32 -117 -77 -140 -178 -140l8 34c80 0 108 40 135 136l49 172c24 83 41 128 108 141v2c-33 10 -46 32 -46 58c0 21 6 48 16 83l49 172c9 33 20 71 20 92
c0 44 -54 44 -79 44l8 34c42 0 113 -2 113 -60c0 -27 -5 -51 -13 -80z" />
    <glyph glyph-name="asciitilde" unicode="~" horiz-adv-x="600" 
d="M491 319l40 -42c-30 -42 -66 -86 -123 -86c-49 0 -80 14 -119 37c-24 14 -57 27 -93 27c-40 0 -70 -33 -87 -68l-40 42c30 42 66 86 123 86c49 0 80 -14 119 -37c24 -14 57 -27 93 -27c40 0 70 33 87 68z" />
    <glyph glyph-name="exclamdown" unicode="&#xa1;" horiz-adv-x="333" 
d="M171 270l11 -4c-35 -118 -76 -254 -76 -361c0 -20 1 -36 2 -52c-41 -22 -83 -81 -97 -133l-11 4c6 21 10 38 10 57c0 28 -10 58 -28 72c35 25 114 176 189 417zM263 393c0 -35 -23 -73 -61 -73c-31 0 -53 25 -53 54c0 36 23 72 63 72c31 0 51 -23 51 -53z" />
    <glyph glyph-name="cent" unicode="&#xa2;" 
d="M221 9l123 407c-133 -12 -171 -250 -171 -322c0 -40 14 -74 48 -85zM189 -94l26 85c-54 13 -126 59 -126 167c0 131 128 267 260 274l24 77h15l-24 -77c65 -2 104 -34 104 -72c0 -33 -18 -51 -46 -51c-26 0 -44 16 -44 47c0 27 11 37 11 44c0 9 -4 16 -30 16l-125 -410
c5 -2 11 -2 16 -2c99 0 174 128 183 149l14 -5c-13 -32 -87 -160 -201 -160c-5 0 -11 0 -17 2l-25 -84h-15z" />
    <glyph glyph-name="sterling" unicode="&#xa3;" 
d="M81 367l5 16h116c-4 26 -6 53 -6 80c0 147 127 247 258 247c76 0 133 -52 133 -120c0 -41 -24 -77 -61 -77c-29 0 -41 21 -41 42c0 31 18 40 51 48c17 4 21 15 21 22c0 28 -43 69 -94 69c-109 0 -165 -131 -165 -259c0 -18 1 -36 2 -52h151l-4 -16h-147
c0 -105 -15 -163 -62 -235c53 -22 124 -66 182 -66c57 0 78 34 97 79l14 -5c-25 -78 -77 -152 -169 -152c-71 0 -111 44 -157 92c-41 -42 -82 -92 -152 -92c-40 0 -83 26 -83 82c0 39 27 103 126 103c41 0 85 -14 114 -28c13 26 18 50 18 74c0 48 -15 104 -22 148h-125z
M-14 66c0 -23 13 -62 71 -62c63 0 100 50 127 95c-28 25 -66 50 -106 50c-49 0 -92 -31 -92 -83z" />
    <glyph glyph-name="fraction" unicode="&#x2044;" horiz-adv-x="167" 
d="M-151 -22l463 742h45l-463 -742h-45z" />
    <glyph glyph-name="yen" unicode="&#xa5;" 
d="M215 202l25 89v6h-169l4 16h164l-26 369h-76l4 16h245l-4 -16h-82l24 -369h6l236 321c14 19 19 26 19 34c0 14 -23 14 -58 14h-19l4 16h155l-4 -16h-13c-17 0 -30 -5 -44 -24l-256 -345h154l-4 -16h-162l-7 -9l-25 -86h168l-4 -16h-169l-49 -170h91l-4 -16h-264l3 16h82
l50 170h-170l5 16h170z" />
    <glyph glyph-name="florin" unicode="&#x192;" 
d="M162 363l3 16h85l22 68c46 141 152 263 254 263c34 0 65 -20 65 -62c0 -29 -23 -48 -50 -48c-34 0 -46 25 -46 50c0 21 12 32 12 37s-4 7 -8 7c-39 0 -93 -65 -141 -244l-19 -71h104l-4 -16h-103l-43 -163c-50 -191 -130 -458 -268 -458c-32 0 -60 25 -60 63
c0 32 22 49 47 49c27 0 37 -23 37 -42c0 -25 -9 -32 -9 -37c0 -6 4 -9 15 -9c66 0 88 131 128 312l63 285h-84z" />
    <glyph glyph-name="section" unicode="&#xa7;" 
d="M42 245c0 88 73 164 142 196c-22 27 -31 57 -31 89c0 109 106 190 210 190c88 0 151 -45 151 -108c0 -20 -10 -61 -60 -61c-27 0 -47 20 -47 47c0 30 16 49 44 49c14 0 21 2 21 8c0 27 -47 49 -108 49c-69 0 -157 -39 -157 -119c0 -128 283 -170 283 -320
c0 -78 -42 -147 -142 -204c18 -25 26 -49 26 -95c0 -106 -82 -224 -241 -224c-107 0 -171 61 -171 134c0 39 21 79 63 79c29 0 52 -22 52 -52c0 -38 -28 -50 -49 -50c-16 0 -19 6 -28 6c-8 0 -14 -5 -14 -16c0 -45 79 -85 145 -85c92 0 189 44 189 162
c0 147 -278 173 -278 325zM90 303c0 -68 141 -120 250 -230c54 25 102 78 102 129c0 75 -95 107 -246 227c-53 -22 -106 -64 -106 -126z" />
    <glyph glyph-name="currency" unicode="&#xa4;" 
d="M42 127l67 67c-35 43 -54 99 -54 155s19 112 54 155l-67 67l39 40l68 -68c45 39 101 54 154 54s109 -15 154 -54l68 68l39 -40l-67 -67c35 -43 54 -99 54 -155s-19 -112 -54 -155l67 -67l-39 -40l-68 68c-44 -39 -100 -54 -154 -54s-110 15 -154 54l-68 -68zM115 349
c0 -106 84 -188 188 -188c105 0 188 82 188 188s-83 188 -188 188c-105 -1 -188 -82 -188 -188z" />
    <glyph glyph-name="quotesingle" unicode="'" horiz-adv-x="278" 
d="M172 450l-16 166c-2 21 -3 35 -3 50c0 27 3 54 36 54s36 -27 36 -54c0 -15 -1 -29 -3 -50l-16 -166c-1 -11 -2 -30 -17 -30s-16 19 -17 30z" />
    <glyph glyph-name="quotedblleft" unicode="&#x201c;" horiz-adv-x="444" 
d="M291 720l7 -10c-19 -14 -136 -78 -136 -164c0 -6 0 -24 6 -24c8 0 15 12 45 12c32 0 55 -20 55 -55c0 -34 -25 -59 -57 -59c-51 0 -79 40 -79 89c0 125 136 194 159 211zM464 720l7 -10c-19 -14 -136 -78 -136 -164c0 -6 0 -24 6 -24c8 0 15 12 45 12c32 0 55 -20 55 -55
c0 -34 -25 -59 -57 -59c-51 0 -79 40 -79 89c0 125 136 194 159 211z" />
    <glyph glyph-name="guillemotleft" unicode="&#xab;" horiz-adv-x="389" 
d="M150 65l-111 188l150 164l28 -26l-131 -141l95 -163zM283 65l-111 188l150 164l28 -26l-131 -141l95 -163z" />
    <glyph glyph-name="guilsinglleft" unicode="&#x2039;" horiz-adv-x="278" 
d="M161 65l-111 188l150 164l28 -26l-131 -141l95 -163z" />
    <glyph glyph-name="guilsinglright" unicode="&#x203a;" horiz-adv-x="278" 
d="M228 229l-150 -164l-28 26l131 141l-95 163l31 22z" />
    <glyph glyph-name="endash" unicode="&#x2013;" horiz-adv-x="500" 
d="M-15 214l14 54h502l-16 -54h-500z" />
    <glyph glyph-name="dagger" unicode="&#x2020;" 
d="M317 533c0 63 -15 92 -15 97c0 8 4 14 10 14c18 0 27 -19 30 -24c12 31 46 90 63 90c7 0 9 -11 9 -25c0 -25 -8 -59 -9 -62l2 -3c11 10 22 17 32 17c4 0 7 -3 7 -9c0 -20 -61 -37 -142 -269c91 0 188 48 192 48c5 0 7 -4 7 -9c0 -6 -7 -17 -12 -24c23 -3 65 -11 65 -25
c0 -8 -54 -22 -78 -23c6 -9 10 -17 10 -23c0 -5 -3 -9 -10 -9s-91 49 -176 49c-39 -142 -81 -337 -81 -486c0 -10 -7 -13 -12 -13c-8 0 -14 9 -18 16c-5 -14 -56 -102 -69 -102c-9 0 -11 13 -11 31c0 29 10 69 12 75l-2 2c-6 -10 -16 -22 -28 -22c-8 0 -11 5 -11 10
c0 14 24 42 27 47c65 106 117 258 175 442c-82 0 -161 -43 -174 -43c-3 0 -7 4 -7 9c0 7 3 18 6 24c-20 3 -61 12 -61 23s53 21 68 22c-1 6 -3 14 -3 21c0 6 3 11 8 11c15 0 99 -51 168 -51c23 91 28 142 28 174z" />
    <glyph glyph-name="daggerdbl" unicode="&#x2021;" 
d="M331 526c0 64 -23 81 -23 104c0 8 4 14 10 14c18 0 27 -19 30 -24c12 31 46 90 63 90c7 0 9 -11 9 -25c0 -25 -8 -59 -9 -62l2 -3c11 10 22 17 32 17c4 0 7 -3 7 -9c0 -18 -76 -62 -121 -221c88 0 164 47 173 47c6 0 12 -1 12 -8c0 -8 -9 -17 -16 -22
c20 -2 66 -15 66 -25c0 -12 -50 -24 -72 -23c2 -6 7 -16 7 -24c0 -4 -2 -9 -9 -9c-9 0 -78 48 -166 48c-23 -73 -62 -201 -93 -310c88 0 164 47 173 47c8 0 12 -3 12 -8c0 -8 -9 -17 -16 -22c20 -2 66 -15 66 -25c0 -12 -50 -24 -72 -23c2 -6 7 -16 7 -24c0 -4 -2 -9 -10 -9
s-77 48 -165 48c-13 -49 -19 -85 -19 -113c0 -70 22 -87 22 -111c0 -10 -4 -14 -10 -14c-11 0 -27 19 -30 24c-12 -31 -46 -93 -63 -93c-7 0 -9 12 -9 26c0 26 8 61 9 64l-2 3c-11 -10 -22 -17 -32 -17c-4 0 -7 3 -7 9c0 18 76 62 121 222c-88 0 -164 -48 -172 -48
c-5 0 -13 1 -13 8c0 8 9 17 16 22c-20 2 -66 15 -66 25c0 12 50 24 72 23c-2 6 -7 18 -7 24c0 4 2 9 7 9c11 0 80 -47 169 -47c31 107 79 247 92 310c-89 0 -165 -48 -173 -48s-13 1 -13 8c0 8 9 17 16 22c-20 2 -66 15 -66 25c0 12 50 24 72 23c-2 6 -7 16 -7 24
c0 4 2 9 8 9c10 0 79 -47 168 -47c14 53 20 91 20 119z" />
    <glyph glyph-name="periodcentered" unicode="&#xb7;" horiz-adv-x="278" 
d="M100 308c0 30 24 54 54 54s54 -24 54 -54s-24 -54 -54 -54s-54 24 -54 54z" />
    <glyph glyph-name="paragraph" unicode="&#xb6;" horiz-adv-x="600" 
d="M45 -242l4 16h83l143 519c-95 0 -151 43 -151 157c0 158 112 254 276 254h249l-5 -16h-80l-252 -914h78l-4 -16h-139l258 930h-60l-258 -930h-142zM281 313l102 370c-124 -4 -187 -113 -187 -237c0 -64 20 -118 85 -133z" />
    <glyph glyph-name="bullet" unicode="&#x2022;" horiz-adv-x="500" 
d="M94 352c0 97 79 176 176 176s176 -79 176 -176s-79 -176 -176 -176s-176 79 -176 176z" />
    <glyph glyph-name="quotesinglbase" unicode="&#x201a;" horiz-adv-x="278" 
d="M12 -192l-7 10c19 14 136 78 136 164c0 6 0 24 -6 24c-8 0 -15 -12 -45 -12c-32 0 -55 20 -55 55c0 34 25 59 57 59c51 0 79 -40 79 -89c0 -125 -136 -194 -159 -211z" />
    <glyph glyph-name="quotedblbase" unicode="&#x201e;" horiz-adv-x="444" 
d="M163 -192l-7 10c19 14 136 78 136 164c0 6 0 24 -6 24c-8 0 -15 -12 -45 -12c-32 0 -55 20 -55 55c0 34 25 59 57 59c51 0 79 -40 79 -89c0 -125 -136 -194 -159 -211zM-10 -192l-7 10c19 14 136 78 136 164c0 6 0 24 -6 24c-8 0 -15 -12 -45 -12c-32 0 -55 20 -55 55
c0 34 25 59 57 59c51 0 79 -40 79 -89c0 -125 -136 -194 -159 -211z" />
    <glyph glyph-name="quotedblright" unicode="&#x201d;" horiz-adv-x="444" 
d="M321 420l-7 10c19 14 136 78 136 164c0 6 0 24 -6 24c-8 0 -15 -12 -45 -12c-32 0 -55 20 -55 55c0 34 25 59 57 59c51 0 79 -40 79 -89c0 -125 -136 -194 -159 -211zM148 420l-7 10c19 14 136 78 136 164c0 6 0 24 -6 24c-8 0 -15 -12 -45 -12c-32 0 -55 20 -55 55
c0 34 25 59 57 59c51 0 79 -40 79 -89c0 -125 -136 -194 -159 -211z" />
    <glyph glyph-name="guillemotright" unicode="&#xbb;" horiz-adv-x="389" 
d="M200 65l-28 26l131 141l-95 163l31 22l111 -188zM67 65l-28 26l131 141l-95 163l31 22l111 -188z" />
    <glyph glyph-name="ellipsis" unicode="&#x2026;" horiz-adv-x="1000" 
d="M48 47c0 35 23 73 61 73c31 0 53 -25 53 -54c0 -36 -23 -72 -63 -72c-31 0 -51 23 -51 53zM381 47c0 35 23 73 61 73c31 0 53 -25 53 -54c0 -36 -23 -72 -63 -72c-31 0 -51 23 -51 53zM714 47c0 35 23 73 61 73c31 0 53 -25 53 -54c0 -36 -23 -72 -63 -72
c-31 0 -51 23 -51 53z" />
    <glyph glyph-name="perthousand" unicode="&#x2030;" horiz-adv-x="944" 
d="M43 475c2 121 78 235 186 235c67 0 104 -71 104 -136c0 -92 -81 -222 -184 -222c-68 0 -106 61 -106 123zM144 600l-13 -41c-11 -32 -34 -105 -34 -138c0 -28 11 -53 52 -53c27 0 53 12 74 72l14 41c18 53 36 137 36 160c0 38 -20 53 -45 53c-30 0 -59 -15 -84 -94z
M656 111c2 121 78 235 186 235c67 0 104 -71 104 -136c0 -92 -81 -222 -184 -222c-68 0 -106 61 -106 123zM757 236l-13 -41c-11 -32 -34 -105 -34 -138c0 -28 11 -53 52 -53c27 0 53 12 74 72l14 41c18 53 36 137 36 160c0 38 -20 53 -45 53c-30 0 -59 -15 -84 -94z
M330 111c2 121 78 235 186 235c67 0 104 -71 104 -136c0 -92 -81 -222 -184 -222c-68 0 -106 61 -106 123zM431 236l-13 -41c-11 -32 -34 -105 -34 -138c0 -28 11 -53 52 -53c27 0 53 12 74 72l14 41c18 53 36 137 36 160c0 38 -20 53 -45 53c-30 0 -59 -15 -84 -94zM83 -22
l463 742h45l-463 -742h-45z" />
    <glyph glyph-name="questiondown" unicode="&#xbf;" horiz-adv-x="389" 
d="M243 265l10 -4l-47 -133c-34 -98 -45 -106 -82 -123c-62 -28 -188 -62 -188 -152c0 -69 64 -107 127 -107c59 0 106 37 106 73c0 7 -5 14 -22 16c-9 1 -34 10 -34 38c0 26 19 45 47 45c32 0 45 -31 45 -58c0 -65 -59 -124 -146 -124c-81 0 -147 53 -147 153
c0 97 64 142 130 176l126 65c27 14 34 24 51 71zM331 393c0 -35 -23 -73 -61 -73c-31 0 -53 25 -53 54c0 36 23 72 63 72c31 0 51 -23 51 -53z" />
    <glyph glyph-name="grave" unicode="`" horiz-adv-x="278" 
d="M249 516l-136 106c-8 8 -19 17 -19 31c0 15 14 32 30 32c17 0 25 -5 34 -17l120 -152h-29z" />
    <glyph glyph-name="acute" unicode="&#xb4;" horiz-adv-x="278" 
d="M148 516l132 132c16 16 37 37 55 37c17 0 31 -13 31 -33c0 -19 -21 -33 -33 -40l-154 -96h-31z" />
    <glyph glyph-name="circumflex" unicode="&#x2c6;" horiz-adv-x="278" 
d="M50 516l161 169h38l88 -169h-33l-82 107l-135 -107h-37z" />
    <glyph glyph-name="tilde" unicode="&#x2dc;" horiz-adv-x="278" 
d="M357 642h26c-15 -52 -48 -102 -108 -102c-27 0 -51 11 -74 24c-18 10 -42 24 -63 24c-28 0 -47 -22 -55 -48h-26c15 52 48 102 108 102c27 0 51 -11 74 -24c18 -10 42 -24 63 -24c28 0 47 22 55 48z" />
    <glyph glyph-name="macron" unicode="&#xaf;" horiz-adv-x="278" 
d="M87 557l8 48h259l-8 -48h-259z" />
    <glyph glyph-name="breve" unicode="&#x2d8;" horiz-adv-x="278" 
d="M82 677h30c5 -64 42 -101 107 -101c64 0 116 41 137 101h24c-19 -86 -72 -161 -168 -161c-98 0 -130 73 -130 161z" />
    <glyph glyph-name="dotaccent" unicode="&#x2d9;" horiz-adv-x="278" 
d="M186 581c0 22 27 63 52 63c23 0 38 -10 38 -34c0 -30 -22 -74 -56 -74c-28 0 -34 22 -34 45z" />
    <glyph glyph-name="dieresis" unicode="&#xa8;" horiz-adv-x="278" 
d="M92 581c0 22 27 63 52 63c23 0 38 -10 38 -34c0 -30 -22 -74 -56 -74c-28 0 -34 22 -34 45zM281 581c0 22 27 63 52 63c23 0 38 -10 38 -34c0 -30 -22 -74 -56 -74c-28 0 -34 22 -34 45z" />
    <glyph glyph-name="ring" unicode="&#x2da;" horiz-adv-x="278" 
d="M133 596c0 53 46 97 97 97s97 -44 97 -97s-46 -97 -97 -97s-97 44 -97 97zM163 596c0 -38 31 -67 67 -67s67 29 67 67s-31 67 -67 67s-67 -29 -67 -67z" />
    <glyph glyph-name="cedilla" unicode="&#xb8;" horiz-adv-x="278" 
d="M39 -93l62 93h24l-50 -73l2 -2c14 7 33 8 51 8c35 0 70 -25 70 -67c0 -69 -65 -80 -120 -80c-43 0 -73 8 -101 21l14 13c22 -6 40 -10 71 -10c30 0 70 12 70 54c0 24 -22 39 -48 39c-13 0 -26 -2 -38 -6z" />
    <glyph glyph-name="hungarumlaut" unicode="&#x2dd;" horiz-adv-x="278" 
d="M48 516l132 132c16 16 37 37 55 37c17 0 31 -13 31 -33c0 -19 -21 -33 -33 -40l-154 -96h-31zM248 516l132 132c16 16 37 37 55 37c17 0 31 -13 31 -33c0 -19 -21 -33 -33 -40l-154 -96h-31z" />
    <glyph glyph-name="ogonek" unicode="&#x2db;" horiz-adv-x="278" 
d="M140 -154l4 -14c-28 -21 -66 -46 -115 -46c-39 0 -56 26 -56 55c0 85 125 140 165 159h17c-34 -24 -116 -76 -116 -141c0 -23 16 -37 42 -37c22 0 42 11 59 24z" />
    <glyph glyph-name="caron" unicode="&#x2c7;" horiz-adv-x="278" 
d="M337 685l-161 -169h-38l-88 169h33l82 -107l135 107h37z" />
    <glyph glyph-name="emdash" unicode="&#x2014;" horiz-adv-x="1000" 
d="M-15 214l16 54h1000l-16 -54h-1000z" />
    <glyph glyph-name="AE" unicode="&#xc6;" horiz-adv-x="889" 
d="M-79 0l3 16c14 0 44 0 56 15l538 657h-84l4 16h497l-31 -189h-16c4 22 6 45 6 60c0 100 -71 113 -137 113h-133l-84 -299h42c81 0 102 2 127 111h16l-61 -265h-16c9 34 17 72 17 87c0 23 -12 51 -57 51h-72l-100 -357h121c134 0 238 41 268 200h16l-47 -216h-541l4 16h77
l67 236h-217l-174 -214c-4 -5 -5 -9 -5 -11c0 -4 5 -11 27 -11h50l-4 -16h-157zM405 268l119 404l-2 2l-326 -406h209z" />
    <glyph glyph-name="ordfeminine" unicode="&#xaa;" horiz-adv-x="361" 
d="M183 501c0 -31 15 -47 44 -47c55 0 87 48 105 104c16 49 26 77 26 89c0 22 -16 53 -56 53c-84 0 -119 -152 -119 -199zM438 700l-65 -194c-3 -9 -8 -23 -8 -33c0 -8 6 -13 17 -13c23 0 51 38 60 50l7 -6c-9 -11 -37 -60 -79 -60c-44 0 -47 35 -47 54h-2
c-15 -25 -51 -54 -95 -54c-67 0 -103 46 -103 102c0 92 94 164 181 164c49 0 65 -32 70 -50h2l12 40h50z" />
    <glyph glyph-name="Lslash" unicode="&#x141;" horiz-adv-x="611" 
d="M-34 0l4 16h77l79 282l-94 -50l13 29l88 47l102 364h-90l4 16h274l-4 -16h-83l-84 -300l224 120l-13 -29l-218 -117l-97 -346h125c164 0 248 74 303 247l15 -4l-81 -259h-544z" />
    <glyph glyph-name="Oslash" unicode="&#xd8;" horiz-adv-x="722" 
d="M184 81l402 568c-28 45 -78 55 -116 55c-118 0 -178 -87 -223 -195c-44 -104 -77 -267 -77 -341c0 -35 5 -64 14 -87zM596 630l-403 -567c28 -49 78 -63 130 -63c90 0 154 59 201 168c54 126 89 300 89 371c0 38 -6 68 -17 91zM110 -24l50 71c-51 44 -86 121 -86 227
c0 166 154 446 397 446c28 0 82 -8 130 -49l49 67l17 -9l-51 -71c50 -47 87 -121 87 -228c0 -180 -164 -446 -377 -446c-66 0 -117 23 -153 51l-49 -69z" />
    <glyph glyph-name="OE" unicode="&#x152;" horiz-adv-x="944" 
d="M420 16l194 672c-34 1 -67 6 -106 6c-282 0 -332 -418 -332 -515c0 -111 50 -169 153 -169c30 0 61 5 91 6zM619 373l-101 -357h97c134 0 238 41 268 200h16l-47 -216h-437c-15 0 -32 -1 -49 -3c-17 -1 -34 -3 -50 -3c-62 0 -242 32 -242 280c0 106 102 436 416 436
c26 0 48 -1 70 -3c21 -1 42 -3 62 -3h371l-31 -189h-16c4 22 6 45 6 60c0 100 -71 113 -137 113h-105l-86 -299h16c81 0 102 2 127 111h16l-61 -265h-16c9 34 17 72 17 87c0 23 -12 51 -57 51h-47z" />
    <glyph glyph-name="ordmasculine" unicode="&#xba;" horiz-adv-x="325" 
d="M225 444c-78 0 -112 47 -112 105c0 75 73 161 175 161c52 0 106 -36 106 -96c0 -98 -85 -170 -169 -170zM173 501c0 -29 16 -47 50 -47c42 0 54 20 63 34c19 29 48 130 48 165c0 29 -15 47 -49 47s-53 -19 -68 -41c-17 -25 -44 -128 -44 -158z" />
    <glyph glyph-name="ae" unicode="&#xe6;" horiz-adv-x="667" 
d="M367 354l20 66h77l-12 -37h2c19 30 56 49 95 49c58 0 98 -35 98 -93c0 -63 -58 -128 -162 -128c-38 0 -68 9 -81 14c-9 -31 -34 -116 -34 -142c0 -42 31 -71 75 -71c74 0 124 53 162 105l11 -8c-32 -55 -100 -121 -196 -121c-50 0 -127 24 -130 101h-2
c-27 -48 -79 -101 -130 -101c-79 0 -124 92 -124 163c0 153 147 281 240 281c51 0 80 -26 89 -75zM108 76c0 -28 3 -72 58 -72c63 0 112 82 144 174c29 84 46 127 46 149c0 53 -23 89 -77 89c-109 0 -171 -274 -171 -340zM541 416c-85 0 -112 -119 -132 -174
c16 -7 36 -15 62 -15c82 0 110 70 110 144c0 27 -13 45 -40 45z" />
    <glyph glyph-name="dotlessi" unicode="&#x131;" horiz-adv-x="278" 
d="M72 394l3 16h27c43 0 85 4 128 22l-104 -326c-7 -21 -16 -47 -16 -62c0 -12 7 -26 24 -26c53 0 99 68 111 86l12 -8c-13 -22 -72 -102 -150 -102c-32 0 -69 18 -69 67c0 19 7 39 13 60l85 273h-64z" />
    <glyph glyph-name="lslash" unicode="&#x142;" horiz-adv-x="278" 
d="M41 301l7 25l74 39l98 329h-68l4 16h45c39 0 79 6 111 25l-95 -320l81 43l-7 -25l-82 -43l-89 -298c-6 -20 -12 -36 -12 -48s7 -26 24 -26c53 0 99 68 111 86l12 -8c-13 -22 -72 -102 -150 -102c-32 0 -69 18 -69 67c0 18 7 41 18 77l61 202z" />
    <glyph glyph-name="oslash" unicode="&#xf8;" horiz-adv-x="500" 
d="M113 52l250 333c-14 20 -39 31 -73 31c-51 0 -85 -31 -107 -69c-21 -36 -75 -205 -75 -263c0 -12 2 -23 5 -32zM372 369l-249 -334c13 -20 38 -31 72 -31c62 0 93 46 102 60c26 44 80 214 80 272c0 12 -2 23 -5 33zM57 -23l35 47c-38 31 -56 82 -56 139
c0 125 112 269 260 269c28 0 58 -10 82 -27l37 50l13 -10l-37 -50c34 -27 58 -69 58 -124c0 -162 -131 -283 -251 -283c-37 0 -68 9 -92 25l-36 -48z" />
    <glyph glyph-name="oe" unicode="&#x153;" horiz-adv-x="667" 
d="M607 117l12 -9c-16 -29 -76 -120 -176 -120c-51 0 -91 37 -110 76c-40 -48 -88 -76 -150 -77c-95 1 -147 79 -147 176c0 125 112 269 246 269c62 0 99 -31 127 -80c36 42 81 80 140 80c58 0 98 -35 98 -93c0 -63 -58 -128 -162 -128c-32 0 -57 6 -74 12
c-8 -21 -24 -95 -24 -138c0 -44 18 -81 64 -81c87 0 140 89 156 113zM108 84c0 -45 30 -80 74 -80c51 0 86 39 105 82c19 42 62 195 62 262c0 36 -17 68 -68 68c-50 0 -76 -31 -98 -69c-21 -36 -75 -205 -75 -263zM581 371c0 27 -13 45 -40 45c-73 0 -107 -113 -127 -177
c18 -6 38 -12 57 -12c82 0 110 70 110 144z" />
    <glyph glyph-name="germandbls" unicode="&#xdf;" 
d="M244 561l-124 -435c-50 -176 -124 -384 -244 -384c-39 0 -64 24 -64 60c0 25 18 50 45 50c23 0 39 -16 39 -40c0 -23 -10 -31 -10 -42c0 -9 3 -12 11 -12c32 0 72 36 99 152l117 498c50 213 161 334 301 334c87 0 135 -71 135 -124c-2 -141 -222 -160 -222 -259
c0 -57 166 -101 166 -201c0 -72 -60 -164 -183 -164c-70 0 -129 45 -129 110c0 27 19 64 56 64c26 0 46 -23 46 -48c0 -52 -51 -47 -51 -71c0 -12 33 -39 75 -39c58 0 126 38 126 99c0 91 -170 105 -172 203c-2 130 246 152 246 320c0 57 -44 94 -97 94
c-91 0 -144 -87 -166 -165z" />
    <glyph glyph-name="logicalnot" unicode="&#xac;" horiz-adv-x="600" 
d="M493 108v213h-446v60h506v-273h-60z" />
    <glyph glyph-name="mu" unicode="&#xb5;" 
d="M499 410l-105 -325c-6 -17 -8 -35 -8 -43c0 -9 9 -24 28 -24c36 0 58 34 91 83l12 -7c-32 -51 -66 -100 -133 -100c-42 0 -70 24 -70 65c0 18 11 50 18 74h-2c-61 -80 -124 -139 -203 -139c-22 0 -31 5 -42 14c-26 -58 -48 -149 -58 -205s-29 -73 -67 -73
c-16 0 -34 11 -34 34c0 42 30 81 81 236l129 394h-64l4 16h27c43 0 85 4 128 22l-112 -347c-6 -18 -10 -35 -10 -41c0 -21 13 -34 39 -34c57 0 173 97 209 210l61 190h81z" />
    <glyph glyph-name="trademark" unicode="&#x2122;" horiz-adv-x="990" 
d="M287 688v-313c0 -47 5 -59 30 -59h20v-16h-166v16h26c20 0 24 12 24 59v313h-49c-41 0 -71 -35 -71 -72h-16v88h338v-88h-16c0 37 -30 72 -71 72h-49zM716 300l-154 308h-2v-225c0 -41 5 -67 40 -67h14v-16h-130v16h16c33 0 36 26 36 67v252c0 25 -30 53 -55 53h-13v16
h115l157 -315l164 315h101v-16h-22c-27 0 -35 -24 -35 -60v-253c0 -47 4 -59 26 -59h24v-16h-166v16h24c22 0 26 12 26 59v233h-2l-155 -308h-9z" />
    <glyph glyph-name="Eth" unicode="&#xd0;" horiz-adv-x="722" 
d="M-34 0l4 16h77l101 360h-83l6 24h83l81 288h-90l4 16h299c181 0 256 -144 256 -269c0 -207 -157 -435 -380 -435h-358zM249 376l-101 -360h170c208 0 290 404 290 498c0 135 -70 174 -170 174h-102l-81 -288h179l-6 -24h-179z" />
    <glyph glyph-name="onehalf" unicode="&#xbd;" horiz-adv-x="834" 
d="M720 54l29 29l9 -3l-47 -80h-259c43 109 174 142 221 188c40 36 67 78 67 147c0 56 -42 75 -90 75c-54 0 -96 -22 -96 -61c0 -28 40 -34 40 -66c0 -8 -5 -24 -24 -24c-30 0 -40 36 -40 61c0 69 60 106 133 106c76 0 143 -31 143 -106c0 -145 -233 -163 -310 -266h224z
M143 300l115 348c-44 -25 -90 -47 -139 -64l-3 13c64 25 162 76 222 113l-133 -410h66l-3 -16h-193l4 16h64zM154 -22l463 742h45l-463 -742h-45z" />
    <glyph glyph-name="plusminus" unicode="&#xb1;" horiz-adv-x="600" 
d="M270 332v174h60v-174h223v-60h-223v-174h-60v174h-223v60h223zM47 0v60h506v-60h-506z" />
    <glyph glyph-name="Thorn" unicode="&#xde;" horiz-adv-x="611" 
d="M-34 0l4 16h77l188 672h-90l4 16h274l-4 -16h-83l-27 -96h105c145 0 194 -74 194 -161c0 -157 -154 -217 -282 -217h-123l-55 -198h87l-4 -16h-265zM305 576l-97 -346h102c144 0 190 142 190 232c0 74 -10 114 -113 114h-82z" />
    <glyph glyph-name="onequarter" unicode="&#xbc;" horiz-adv-x="834" 
d="M441 124l313 314l9 -6l-264 -266h151l48 133l72 36l-60 -169h79l-11 -42h-80l-36 -108h59l-4 -16h-181l4 16h62l36 108h-197zM143 300l115 348c-44 -25 -90 -47 -139 -64l-3 13c64 25 162 76 222 113l-133 -410h66l-3 -16h-193l4 16h64zM198 -22l463 742h45l-463 -742
h-45z" />
    <glyph glyph-name="divide" unicode="&#xf7;" horiz-adv-x="600" 
d="M240 46c0 33 28 60 60 60s60 -28 60 -60c0 -30 -28 -60 -60 -60s-60 28 -60 60zM240 460c0 33 28 60 60 60s60 -28 60 -60c0 -30 -28 -60 -60 -60s-60 28 -60 60zM47 223v60h506v-60h-506z" />
    <glyph glyph-name="brokenbar" unicode="&#xa6;" horiz-adv-x="222" 
d="M106 -175v350h60v-350h-60zM106 325v350h60v-350h-60z" />
    <glyph glyph-name="degree" unicode="&#xb0;" horiz-adv-x="400" 
d="M143 567c0 -55 47 -107 107 -107s107 52 107 107s-47 107 -107 107s-107 -52 -107 -107zM107 567c0 82 63 143 143 143s143 -61 143 -143s-63 -143 -143 -143s-143 61 -143 143z" />
    <glyph glyph-name="thorn" unicode="&#xfe;" 
d="M-119 -270l4 16h54l269 948h-68l4 16h45c39 0 79 6 111 25l-107 -381h2c34 48 85 78 142 78c81 0 154 -66 154 -170c0 -133 -124 -274 -260 -274c-63 0 -106 31 -116 79h-2l-91 -321h60l-4 -16h-197zM413 315c0 70 -34 101 -82 101c-86 0 -140 -75 -165 -163l-33 -114
c-6 -22 -8 -39 -8 -45c0 -60 49 -90 96 -90c127 0 192 220 192 311z" />
    <glyph glyph-name="threequarters" unicode="&#xbe;" horiz-adv-x="834" 
d="M159 507l4 16c34 0 107 -3 136 22c25 20 37 67 37 96c0 43 -31 53 -73 53c-47 0 -80 -23 -80 -36c0 -12 43 0 43 -36c0 -16 -20 -27 -38 -27c-22 0 -29 23 -29 39c0 53 67 76 115 76c63 0 128 -25 128 -90c0 -68 -104 -101 -156 -104v-2c70 -3 117 -31 117 -96
c0 -82 -87 -140 -170 -140c-69 0 -118 24 -118 73c0 31 23 55 52 55c19 0 33 -13 33 -31c0 -14 -14 -28 -30 -28c-8 0 -39 14 -39 -15c0 -19 44 -38 107 -38c66 0 99 80 99 146c0 50 -45 61 -67 64c-25 3 -48 3 -71 3zM441 124l313 314l9 -6l-264 -266h151l48 133l72 36
l-60 -169h79l-11 -42h-80l-36 -108h59l-4 -16h-181l4 16h62l36 108h-197zM211 -22l463 742h45l-463 -742h-45z" />
    <glyph glyph-name="registered" unicode="&#xae;" horiz-adv-x="800" 
d="M425 720c204 0 368 -166 368 -368c0 -203 -164 -368 -368 -368c-203 0 -368 165 -368 368c0 202 165 368 368 368zM425 672c-173 0 -314 -148 -314 -320c0 -173 141 -320 314 -320s314 147 314 320c0 172 -141 320 -314 320zM250 160v16h23c24 0 30 6 30 52v257
c0 46 -6 52 -30 52h-23v16h189c66 0 128 -29 128 -101c0 -57 -31 -97 -82 -110l56 -83c30 -38 62 -83 87 -83v-16h-65c-37 0 -62 68 -141 175h-53v-107c0 -46 6 -52 30 -52h23v-16h-172zM369 537v-186h51c54 0 81 41 81 102s-40 84 -84 84h-48z" />
    <glyph glyph-name="minus" unicode="&#x2212;" horiz-adv-x="600" 
d="M47 223v60h506v-60h-506z" />
    <glyph glyph-name="eth" unicode="&#xf0;" horiz-adv-x="500" 
d="M193 572l108 54c-19 32 -56 63 -85 86l12 12c39 -21 72 -52 103 -83l103 52l10 -18l-97 -49c31 -42 102 -126 102 -290c0 -218 -121 -348 -251 -348c-110 0 -162 78 -162 175c0 125 112 269 260 269c31 0 60 -14 79 -34h2c-2 84 -37 168 -66 210l-108 -54zM108 84
c0 -49 30 -80 87 -80c65 0 87 35 100 57c28 47 82 217 82 275c0 49 -30 80 -87 80c-51 0 -85 -31 -107 -69c-21 -36 -75 -205 -75 -263z" />
    <glyph glyph-name="multiply" unicode="&#xd7;" horiz-adv-x="600" 
d="M259 253l-186 186l41 41l185 -187l187 187l41 -41l-187 -186l187 -186l-41 -41l-187 187l-185 -187l-41 41z" />
    <glyph glyph-name="copyright" unicode="&#xa9;" horiz-adv-x="800" 
d="M425 720c204 0 368 -166 368 -368c0 -203 -164 -368 -368 -368c-203 0 -368 165 -368 368c0 202 165 368 368 368zM425 672c-173 0 -314 -148 -314 -320c0 -173 141 -320 314 -320s314 147 314 320c0 172 -141 320 -314 320zM608 261l-17 -74c-3 -11 -13 -15 -29 -20
c-21 -7 -63 -18 -115 -18c-123 0 -228 60 -228 211c0 89 73 205 235 205c57 0 84 -10 112 -19c16 -5 25 -13 25 -22v-74h-16c0 45 -36 99 -125 99c-106 0 -158 -80 -159 -184c-1 -113 52 -200 167 -200c76 0 115 49 135 96h15z" />
    <glyph glyph-name="Aacute" unicode="&#xc1;" horiz-adv-x="611" 
d="M-65 0l3 16h24c14 0 33 2 52 32l436 690h14l22 -722h60l-3 -16h-245l4 16h87l-7 236h-218l-123 -198c-9 -13 -12 -20 -12 -25c0 -8 10 -13 45 -13h31l-4 -16h-166zM382 268l-6 317h-2l-198 -317h206zM405 768l132 132c16 16 37 37 55 37c17 0 31 -13 31 -33
c0 -19 -21 -33 -33 -40l-154 -96h-31z" />
    <glyph glyph-name="Acircumflex" unicode="&#xc2;" horiz-adv-x="611" 
d="M-65 0l3 16h24c14 0 33 2 52 32l436 690h14l22 -722h60l-3 -16h-245l4 16h87l-7 236h-218l-123 -198c-9 -13 -12 -20 -12 -25c0 -8 10 -13 45 -13h31l-4 -16h-166zM382 268l-6 317h-2l-198 -317h206zM325 768l161 169h38l88 -169h-33l-82 107l-135 -107h-37z" />
    <glyph glyph-name="Adieresis" unicode="&#xc4;" horiz-adv-x="611" 
d="M-65 0l3 16h24c14 0 33 2 52 32l436 690h14l22 -722h60l-3 -16h-245l4 16h87l-7 236h-218l-123 -198c-9 -13 -12 -20 -12 -25c0 -8 10 -13 45 -13h31l-4 -16h-166zM382 268l-6 317h-2l-198 -317h206zM349 833c0 22 27 63 52 63c23 0 38 -10 38 -34c0 -30 -22 -74 -56 -74
c-28 0 -34 22 -34 45zM538 833c0 22 27 63 52 63c23 0 38 -10 38 -34c0 -30 -22 -74 -56 -74c-28 0 -34 22 -34 45z" />
    <glyph glyph-name="Agrave" unicode="&#xc0;" horiz-adv-x="611" 
d="M-65 0l3 16h24c14 0 33 2 52 32l436 690h14l22 -722h60l-3 -16h-245l4 16h87l-7 236h-218l-123 -198c-9 -13 -12 -20 -12 -25c0 -8 10 -13 45 -13h31l-4 -16h-166zM382 268l-6 317h-2l-198 -317h206zM506 748l-136 106c-8 8 -19 17 -19 31c0 15 14 32 30 32
c17 0 25 -5 34 -17l120 -152h-29z" />
    <glyph glyph-name="Aring" unicode="&#xc5;" horiz-adv-x="611" 
d="M-65 0l3 16h24c14 0 33 2 52 32l436 690h14l22 -722h60l-3 -16h-245l4 16h87l-7 236h-218l-123 -198c-9 -13 -12 -20 -12 -25c0 -8 10 -13 45 -13h31l-4 -16h-166zM382 268l-6 317h-2l-198 -317h206zM378 848c0 53 46 97 97 97s97 -44 97 -97s-46 -97 -97 -97
s-97 44 -97 97zM408 848c0 -38 31 -67 67 -67s67 29 67 67s-31 67 -67 67s-67 -29 -67 -67z" />
    <glyph glyph-name="Atilde" unicode="&#xc3;" horiz-adv-x="611" 
d="M-65 0l3 16h24c14 0 33 2 52 32l436 690h14l22 -722h60l-3 -16h-245l4 16h87l-7 236h-218l-123 -198c-9 -13 -12 -20 -12 -25c0 -8 10 -13 45 -13h31l-4 -16h-166zM382 268l-6 317h-2l-198 -317h206zM614 894h26c-15 -52 -48 -102 -108 -102c-27 0 -51 11 -74 24
c-18 10 -42 24 -63 24c-28 0 -47 -22 -55 -48h-26c15 52 48 102 108 102c27 0 51 -11 74 -24c18 -10 42 -24 63 -24c28 0 47 22 55 48z" />
    <glyph glyph-name="Ccedilla" unicode="&#xc7;" horiz-adv-x="667" 
d="M711 683l-54 -244l-16 4c9 30 13 62 13 93c0 94 -86 168 -178 168c-204 0 -300 -366 -300 -509c0 -83 34 -195 169 -195c162 0 237 141 259 177l16 -8c-18 -33 -103 -185 -280 -185c-10 0 -21 1 -29 3l-41 -60l2 -2c14 7 33 8 51 8c35 0 70 -25 70 -67
c0 -69 -65 -80 -120 -80c-43 0 -73 8 -101 21l14 13c22 -6 40 -10 71 -10c30 0 70 12 70 54c0 24 -22 39 -48 39c-13 0 -26 -2 -38 -6l-7 10l56 84c-122 21 -216 127 -216 277c0 274 226 452 408 452c102 0 144 -71 177 -71c28 0 29 24 36 37z" />
    <glyph glyph-name="Eacute" unicode="&#xc9;" horiz-adv-x="574" 
d="M-34 0l4 16h77l188 672h-90l4 16h499l-31 -189h-16c4 22 6 45 6 60c0 100 -71 113 -137 113h-133l-84 -299h42c81 0 102 2 127 111h16l-61 -265h-16c9 34 17 72 17 87c0 23 -12 51 -57 51h-72l-100 -357h121c134 0 238 41 268 200h16l-47 -216h-541zM341 768l132 132
c16 16 37 37 55 37c17 0 31 -13 31 -33c0 -19 -21 -33 -33 -40l-154 -96h-31z" />
    <glyph glyph-name="Ecircumflex" unicode="&#xca;" horiz-adv-x="574" 
d="M-34 0l4 16h77l188 672h-90l4 16h499l-31 -189h-16c4 22 6 45 6 60c0 100 -71 113 -137 113h-133l-84 -299h42c81 0 102 2 127 111h16l-61 -265h-16c9 34 17 72 17 87c0 23 -12 51 -57 51h-72l-100 -357h121c134 0 238 41 268 200h16l-47 -216h-541zM277 768l161 169h38
l88 -169h-33l-82 107l-135 -107h-37z" />
    <glyph glyph-name="Edieresis" unicode="&#xcb;" horiz-adv-x="574" 
d="M-34 0l4 16h77l188 672h-90l4 16h499l-31 -189h-16c4 22 6 45 6 60c0 100 -71 113 -137 113h-133l-84 -299h42c81 0 102 2 127 111h16l-61 -265h-16c9 34 17 72 17 87c0 23 -12 51 -57 51h-72l-100 -357h121c134 0 238 41 268 200h16l-47 -216h-541zM311 833
c0 22 27 63 52 63c23 0 38 -10 38 -34c0 -30 -22 -74 -56 -74c-28 0 -34 22 -34 45zM500 833c0 22 27 63 52 63c23 0 38 -10 38 -34c0 -30 -22 -74 -56 -74c-28 0 -34 22 -34 45z" />
    <glyph glyph-name="Egrave" unicode="&#xc8;" horiz-adv-x="574" 
d="M-34 0l4 16h77l188 672h-90l4 16h499l-31 -189h-16c4 22 6 45 6 60c0 100 -71 113 -137 113h-133l-84 -299h42c81 0 102 2 127 111h16l-61 -265h-16c9 34 17 72 17 87c0 23 -12 51 -57 51h-72l-100 -357h121c134 0 238 41 268 200h16l-47 -216h-541zM442 768l-136 106
c-8 8 -19 17 -19 31c0 15 14 32 30 32c17 0 25 -5 34 -17l120 -152h-29z" />
    <glyph glyph-name="Iacute" unicode="&#xcd;" horiz-adv-x="333" 
d="M-34 0l4 16h77l188 672h-90l4 16h274l-4 -16h-83l-188 -672h87l-4 -16h-265zM221 768l132 132c16 16 37 37 55 37c17 0 31 -13 31 -33c0 -19 -21 -33 -33 -40l-154 -96h-31z" />
    <glyph glyph-name="Icircumflex" unicode="&#xce;" horiz-adv-x="333" 
d="M-34 0l4 16h77l188 672h-90l4 16h274l-4 -16h-83l-188 -672h87l-4 -16h-265zM157 768l161 169h38l88 -169h-33l-82 107l-135 -107h-37z" />
    <glyph glyph-name="Idieresis" unicode="&#xcf;" horiz-adv-x="333" 
d="M-34 0l4 16h77l188 672h-90l4 16h274l-4 -16h-83l-188 -672h87l-4 -16h-265zM181 833c0 22 27 63 52 63c23 0 38 -10 38 -34c0 -30 -22 -74 -56 -74c-28 0 -34 22 -34 45zM370 833c0 22 27 63 52 63c23 0 38 -10 38 -34c0 -30 -22 -74 -56 -74c-28 0 -34 22 -34 45z" />
    <glyph glyph-name="Igrave" unicode="&#xcc;" horiz-adv-x="333" 
d="M-34 0l4 16h77l188 672h-90l4 16h274l-4 -16h-83l-188 -672h87l-4 -16h-265zM322 768l-136 106c-8 8 -19 17 -19 31c0 15 14 32 30 32c17 0 25 -5 34 -17l120 -152h-29z" />
    <glyph glyph-name="Ntilde" unicode="&#xd1;" horiz-adv-x="722" 
d="M-34 0l4 16h27c52 0 59 24 100 171l141 501h-91l3 16h194l210 -587h2l131 455c10 34 21 73 21 90c0 20 -12 25 -79 26l4 16h182l-4 -16h-10c-55 0 -66 -11 -78 -52l-180 -628l-45 -14l-246 680h-2l-159 -575c-7 -25 -13 -42 -13 -51c0 -11 2 -32 51 -32h25l-4 -16h-184z
M624 894h26c-15 -52 -48 -102 -108 -102c-27 0 -51 11 -74 24c-18 10 -42 24 -63 24c-28 0 -47 -22 -55 -48h-26c15 52 48 102 108 102c27 0 51 -11 74 -24c18 -10 42 -24 63 -24c28 0 47 22 55 48z" />
    <glyph glyph-name="Oacute" unicode="&#xd3;" horiz-adv-x="722" 
d="M471 720c99 0 232 -88 232 -290c0 -180 -164 -446 -377 -446c-126 0 -252 88 -252 290c0 166 154 446 397 446zM323 0c90 0 154 59 201 168c54 126 89 300 89 371c0 144 -86 165 -143 165c-118 0 -178 -87 -223 -195c-44 -104 -77 -267 -77 -341c0 -136 77 -168 153 -168
zM415 768l132 132c16 16 37 37 55 37c17 0 31 -13 31 -33c0 -19 -21 -33 -33 -40l-154 -96h-31z" />
    <glyph glyph-name="Ocircumflex" unicode="&#xd4;" horiz-adv-x="722" 
d="M471 720c99 0 232 -88 232 -290c0 -180 -164 -446 -377 -446c-126 0 -252 88 -252 290c0 166 154 446 397 446zM323 0c90 0 154 59 201 168c54 126 89 300 89 371c0 144 -86 165 -143 165c-118 0 -178 -87 -223 -195c-44 -104 -77 -267 -77 -341c0 -136 77 -168 153 -168
zM335 768l161 169h38l88 -169h-33l-82 107l-135 -107h-37z" />
    <glyph glyph-name="Odieresis" unicode="&#xd6;" horiz-adv-x="722" 
d="M471 720c99 0 232 -88 232 -290c0 -180 -164 -446 -377 -446c-126 0 -252 88 -252 290c0 166 154 446 397 446zM323 0c90 0 154 59 201 168c54 126 89 300 89 371c0 144 -86 165 -143 165c-118 0 -178 -87 -223 -195c-44 -104 -77 -267 -77 -341c0 -136 77 -168 153 -168
zM359 833c0 22 27 63 52 63c23 0 38 -10 38 -34c0 -30 -22 -74 -56 -74c-28 0 -34 22 -34 45zM548 833c0 22 27 63 52 63c23 0 38 -10 38 -34c0 -30 -22 -74 -56 -74c-28 0 -34 22 -34 45z" />
    <glyph glyph-name="Ograve" unicode="&#xd2;" horiz-adv-x="722" 
d="M471 720c99 0 232 -88 232 -290c0 -180 -164 -446 -377 -446c-126 0 -252 88 -252 290c0 166 154 446 397 446zM323 0c90 0 154 59 201 168c54 126 89 300 89 371c0 144 -86 165 -143 165c-118 0 -178 -87 -223 -195c-44 -104 -77 -267 -77 -341c0 -136 77 -168 153 -168
zM516 768l-136 106c-8 8 -19 17 -19 31c0 15 14 32 30 32c17 0 25 -5 34 -17l120 -152h-29z" />
    <glyph glyph-name="Otilde" unicode="&#xd5;" horiz-adv-x="722" 
d="M471 720c99 0 232 -88 232 -290c0 -180 -164 -446 -377 -446c-126 0 -252 88 -252 290c0 166 154 446 397 446zM323 0c90 0 154 59 201 168c54 126 89 300 89 371c0 144 -86 165 -143 165c-118 0 -178 -87 -223 -195c-44 -104 -77 -267 -77 -341c0 -136 77 -168 153 -168
zM624 894h26c-15 -52 -48 -102 -108 -102c-27 0 -51 11 -74 24c-18 10 -42 24 -63 24c-28 0 -47 -22 -55 -48h-26c15 52 48 102 108 102c27 0 51 -11 74 -24c18 -10 42 -24 63 -24c28 0 47 22 55 48z" />
    <glyph glyph-name="Scaron" unicode="&#x160;" 
d="M-10 3l69 251l16 -3c-8 -29 -13 -59 -13 -89c0 -93 78 -162 181 -162c171 0 190 143 190 174c0 188 -291 104 -291 318c0 64 33 228 215 228c95 0 128 -56 166 -56c17 0 24 23 27 35l16 -6l-57 -210l-16 4c5 25 10 50 10 76c0 89 -58 141 -156 141
c-88 0 -163 -60 -163 -148c0 -156 309 -94 309 -322c0 -92 -63 -250 -259 -250c-101 0 -145 60 -188 60c-22 0 -31 -25 -41 -44zM555 937l-161 -169h-38l-88 169h33l82 -107l135 107h37z" />
    <glyph glyph-name="Uacute" unicode="&#xda;" horiz-adv-x="722" 
d="M818 704l-4 -16c-47 0 -72 -1 -85 -46l-139 -478c-28 -96 -109 -180 -276 -180c-113 0 -233 49 -233 157c0 35 52 223 59 248l82 299h-90l4 16h274l-4 -16h-83l-88 -307c-34 -119 -64 -229 -64 -265c0 -79 70 -116 147 -116c137 0 222 55 256 170l114 390
c7 23 24 84 24 101c0 19 -7 27 -70 27h-22l4 16h194zM415 768l132 132c16 16 37 37 55 37c17 0 31 -13 31 -33c0 -19 -21 -33 -33 -40l-154 -96h-31z" />
    <glyph glyph-name="Ucircumflex" unicode="&#xdb;" horiz-adv-x="722" 
d="M818 704l-4 -16c-47 0 -72 -1 -85 -46l-139 -478c-28 -96 -109 -180 -276 -180c-113 0 -233 49 -233 157c0 35 52 223 59 248l82 299h-90l4 16h274l-4 -16h-83l-88 -307c-34 -119 -64 -229 -64 -265c0 -79 70 -116 147 -116c137 0 222 55 256 170l114 390
c7 23 24 84 24 101c0 19 -7 27 -70 27h-22l4 16h194zM351 768l161 169h38l88 -169h-33l-82 107l-135 -107h-37z" />
    <glyph glyph-name="Udieresis" unicode="&#xdc;" horiz-adv-x="722" 
d="M818 704l-4 -16c-47 0 -72 -1 -85 -46l-139 -478c-28 -96 -109 -180 -276 -180c-113 0 -233 49 -233 157c0 35 52 223 59 248l82 299h-90l4 16h274l-4 -16h-83l-88 -307c-34 -119 -64 -229 -64 -265c0 -79 70 -116 147 -116c137 0 222 55 256 170l114 390
c7 23 24 84 24 101c0 19 -7 27 -70 27h-22l4 16h194zM385 833c0 22 27 63 52 63c23 0 38 -10 38 -34c0 -30 -22 -74 -56 -74c-28 0 -34 22 -34 45zM574 833c0 22 27 63 52 63c23 0 38 -10 38 -34c0 -30 -22 -74 -56 -74c-28 0 -34 22 -34 45z" />
    <glyph glyph-name="Ugrave" unicode="&#xd9;" horiz-adv-x="722" 
d="M818 704l-4 -16c-47 0 -72 -1 -85 -46l-139 -478c-28 -96 -109 -180 -276 -180c-113 0 -233 49 -233 157c0 35 52 223 59 248l82 299h-90l4 16h274l-4 -16h-83l-88 -307c-34 -119 -64 -229 -64 -265c0 -79 70 -116 147 -116c137 0 222 55 256 170l114 390
c7 23 24 84 24 101c0 19 -7 27 -70 27h-22l4 16h194zM516 768l-136 106c-8 8 -19 17 -19 31c0 15 14 32 30 32c17 0 25 -5 34 -17l120 -152h-29z" />
    <glyph glyph-name="Yacute" unicode="&#xdd;" horiz-adv-x="500" 
d="M274 688l24 -377h2l224 308c19 27 32 45 32 57s-35 12 -63 12h-14l4 16h155l-4 -16h-8c-23 0 -35 -5 -49 -24l-272 -374l-76 -274h87l-4 -16h-265l4 16h77l81 281l-28 391h-76l4 16h251l-4 -16h-82zM334 768l132 132c16 16 37 37 55 37c17 0 31 -13 31 -33
c0 -19 -21 -33 -33 -40l-154 -96h-31z" />
    <glyph glyph-name="Ydieresis" unicode="&#x178;" horiz-adv-x="500" 
d="M274 688l24 -377h2l224 308c19 27 32 45 32 57s-35 12 -63 12h-14l4 16h155l-4 -16h-8c-23 0 -35 -5 -49 -24l-272 -374l-76 -274h87l-4 -16h-265l4 16h77l81 281l-28 391h-76l4 16h251l-4 -16h-82zM274 833c0 22 27 63 52 63c23 0 38 -10 38 -34c0 -30 -22 -74 -56 -74
c-28 0 -34 22 -34 45zM463 833c0 22 27 63 52 63c23 0 38 -10 38 -34c0 -30 -22 -74 -56 -74c-28 0 -34 22 -34 45z" />
    <glyph glyph-name="Zcaron" unicode="&#x17d;" horiz-adv-x="611" 
d="M-7 0l538 688h-157c-153 0 -206 -84 -247 -183h-16l61 199h487l-538 -688h183c138 0 204 54 256 192h16l-61 -208h-522zM549 937l-161 -169h-38l-88 169h33l82 -107l135 107h37z" />
    <glyph glyph-name="aacute" unicode="&#xe1;" 
d="M114 84c0 -53 27 -80 72 -80c85 0 134 81 162 174c25 82 45 129 45 149c0 36 -30 89 -92 89c-128 0 -187 -255 -187 -332zM501 410l-99 -318c-5 -16 -11 -36 -11 -52s8 -28 24 -28c35 0 79 67 93 86l10 -10c-13 -18 -57 -100 -121 -100c-68 0 -71 59 -72 90h-2
c-24 -41 -80 -90 -138 -90c-95 0 -149 77 -149 170c0 140 144 274 269 274c65 0 91 -53 98 -83h2l19 61h77zM287 552l132 132c16 16 37 37 55 37c17 0 31 -13 31 -33c0 -19 -21 -33 -33 -40l-154 -96h-31z" />
    <glyph glyph-name="acircumflex" unicode="&#xe2;" 
d="M114 84c0 -53 27 -80 72 -80c85 0 134 81 162 174c25 82 45 129 45 149c0 36 -30 89 -92 89c-128 0 -187 -255 -187 -332zM501 410l-99 -318c-5 -16 -11 -36 -11 -52s8 -28 24 -28c35 0 79 67 93 86l10 -10c-13 -18 -57 -100 -121 -100c-68 0 -71 59 -72 90h-2
c-24 -41 -80 -90 -138 -90c-95 0 -149 77 -149 170c0 140 144 274 269 274c65 0 91 -53 98 -83h2l19 61h77zM189 552l161 169h38l88 -169h-33l-82 107l-135 -107h-37z" />
    <glyph glyph-name="adieresis" unicode="&#xe4;" 
d="M114 84c0 -53 27 -80 72 -80c85 0 134 81 162 174c25 82 45 129 45 149c0 36 -30 89 -92 89c-128 0 -187 -255 -187 -332zM501 410l-99 -318c-5 -16 -11 -36 -11 -52s8 -28 24 -28c35 0 79 67 93 86l10 -10c-13 -18 -57 -100 -121 -100c-68 0 -71 59 -72 90h-2
c-24 -41 -80 -90 -138 -90c-95 0 -149 77 -149 170c0 140 144 274 269 274c65 0 91 -53 98 -83h2l19 61h77zM219 617c0 22 27 63 52 63c23 0 38 -10 38 -34c0 -30 -22 -74 -56 -74c-28 0 -34 22 -34 45zM408 617c0 22 27 63 52 63c23 0 38 -10 38 -34c0 -30 -22 -74 -56 -74
c-28 0 -34 22 -34 45z" />
    <glyph glyph-name="agrave" unicode="&#xe0;" 
d="M114 84c0 -53 27 -80 72 -80c85 0 134 81 162 174c25 82 45 129 45 149c0 36 -30 89 -92 89c-128 0 -187 -255 -187 -332zM501 410l-99 -318c-5 -16 -11 -36 -11 -52s8 -28 24 -28c35 0 79 67 93 86l10 -10c-13 -18 -57 -100 -121 -100c-68 0 -71 59 -72 90h-2
c-24 -41 -80 -90 -138 -90c-95 0 -149 77 -149 170c0 140 144 274 269 274c65 0 91 -53 98 -83h2l19 61h77zM376 552l-136 106c-8 8 -19 17 -19 31c0 15 14 32 30 32c17 0 25 -5 34 -17l120 -152h-29z" />
    <glyph glyph-name="aring" unicode="&#xe5;" 
d="M114 84c0 -53 27 -80 72 -80c85 0 134 81 162 174c25 82 45 129 45 149c0 36 -30 89 -92 89c-128 0 -187 -255 -187 -332zM501 410l-99 -318c-5 -16 -11 -36 -11 -52s8 -28 24 -28c35 0 79 67 93 86l10 -10c-13 -18 -57 -100 -121 -100c-68 0 -71 59 -72 90h-2
c-24 -41 -80 -90 -138 -90c-95 0 -149 77 -149 170c0 140 144 274 269 274c65 0 91 -53 98 -83h2l19 61h77zM272 632c0 53 46 97 97 97s97 -44 97 -97s-46 -97 -97 -97s-97 44 -97 97zM302 632c0 -38 31 -67 67 -67s67 29 67 67s-31 67 -67 67s-67 -29 -67 -67z" />
    <glyph glyph-name="atilde" unicode="&#xe3;" 
d="M114 84c0 -53 27 -80 72 -80c85 0 134 81 162 174c25 82 45 129 45 149c0 36 -30 89 -92 89c-128 0 -187 -255 -187 -332zM501 410l-99 -318c-5 -16 -11 -36 -11 -52s8 -28 24 -28c35 0 79 67 93 86l10 -10c-13 -18 -57 -100 -121 -100c-68 0 -71 59 -72 90h-2
c-24 -41 -80 -90 -138 -90c-95 0 -149 77 -149 170c0 140 144 274 269 274c65 0 91 -53 98 -83h2l19 61h77zM496 678h26c-15 -52 -48 -102 -108 -102c-27 0 -51 11 -74 24c-18 10 -42 24 -63 24c-28 0 -47 -22 -55 -48h-26c15 52 48 102 108 102c27 0 51 -11 74 -24
c18 -10 42 -24 63 -24c28 0 47 22 55 48z" />
    <glyph glyph-name="ccedilla" unicode="&#xe7;" horiz-adv-x="444" 
d="M380 153l14 -5c-13 -32 -87 -160 -201 -160c-2 0 -5 0 -8 1l-42 -62l2 -2c14 7 33 8 51 8c35 0 70 -25 70 -67c0 -69 -65 -80 -120 -80c-43 0 -73 8 -101 21l14 13c22 -6 40 -10 71 -10c30 0 70 12 70 54c0 24 -22 39 -48 39c-13 0 -26 -2 -38 -6l-7 10l57 85
c-54 11 -128 57 -128 166c0 134 134 274 269 274c68 0 110 -33 110 -72c0 -33 -18 -51 -46 -51c-26 0 -44 16 -44 47c0 27 11 37 11 44c0 9 -5 16 -35 16c-141 0 -181 -248 -181 -322c0 -50 22 -90 77 -90c99 0 174 128 183 149z" />
    <glyph glyph-name="eacute" unicode="&#xe9;" horiz-adv-x="444" 
d="M374 115l10 -7c-21 -29 -82 -120 -191 -120c-54 0 -157 41 -157 170c0 154 144 274 269 274c50 0 109 -24 109 -87c0 -77 -94 -134 -207 -134c-26 0 -52 5 -76 15c-10 -38 -17 -80 -17 -105c0 -66 21 -117 94 -117c86 0 149 89 166 111zM348 355c0 35 -23 61 -60 61
c-90 0 -130 -103 -153 -175c16 -5 42 -14 72 -14c108 0 141 87 141 128zM231 552l132 132c16 16 37 37 55 37c17 0 31 -13 31 -33c0 -19 -21 -33 -33 -40l-154 -96h-31z" />
    <glyph glyph-name="ecircumflex" unicode="&#xea;" horiz-adv-x="444" 
d="M374 115l10 -7c-21 -29 -82 -120 -191 -120c-54 0 -157 41 -157 170c0 154 144 274 269 274c50 0 109 -24 109 -87c0 -77 -94 -134 -207 -134c-26 0 -52 5 -76 15c-10 -38 -17 -80 -17 -105c0 -66 21 -117 94 -117c86 0 149 89 166 111zM348 355c0 35 -23 61 -60 61
c-90 0 -130 -103 -153 -175c16 -5 42 -14 72 -14c108 0 141 87 141 128zM133 552l161 169h38l88 -169h-33l-82 107l-135 -107h-37z" />
    <glyph glyph-name="edieresis" unicode="&#xeb;" horiz-adv-x="444" 
d="M374 115l10 -7c-21 -29 -82 -120 -191 -120c-54 0 -157 41 -157 170c0 154 144 274 269 274c50 0 109 -24 109 -87c0 -77 -94 -134 -207 -134c-26 0 -52 5 -76 15c-10 -38 -17 -80 -17 -105c0 -66 21 -117 94 -117c86 0 149 89 166 111zM348 355c0 35 -23 61 -60 61
c-90 0 -130 -103 -153 -175c16 -5 42 -14 72 -14c108 0 141 87 141 128zM163 617c0 22 27 63 52 63c23 0 38 -10 38 -34c0 -30 -22 -74 -56 -74c-28 0 -34 22 -34 45zM352 617c0 22 27 63 52 63c23 0 38 -10 38 -34c0 -30 -22 -74 -56 -74c-28 0 -34 22 -34 45z" />
    <glyph glyph-name="egrave" unicode="&#xe8;" horiz-adv-x="444" 
d="M374 115l10 -7c-21 -29 -82 -120 -191 -120c-54 0 -157 41 -157 170c0 154 144 274 269 274c50 0 109 -24 109 -87c0 -77 -94 -134 -207 -134c-26 0 -52 5 -76 15c-10 -38 -17 -80 -17 -105c0 -66 21 -117 94 -117c86 0 149 89 166 111zM348 355c0 35 -23 61 -60 61
c-90 0 -130 -103 -153 -175c16 -5 42 -14 72 -14c108 0 141 87 141 128zM320 552l-136 106c-8 8 -19 17 -19 31c0 15 14 32 30 32c17 0 25 -5 34 -17l120 -152h-29z" />
    <glyph glyph-name="iacute" unicode="&#xed;" horiz-adv-x="278" 
d="M72 394l3 16h27c43 0 85 4 128 22l-104 -326c-7 -21 -16 -47 -16 -62c0 -12 7 -26 24 -26c53 0 99 68 111 86l12 -8c-13 -22 -72 -102 -150 -102c-32 0 -69 18 -69 67c0 19 7 39 13 60l85 273h-64zM148 552l132 132c16 16 37 37 55 37c17 0 31 -13 31 -33
c0 -19 -21 -33 -33 -40l-154 -96h-31z" />
    <glyph glyph-name="icircumflex" unicode="&#xee;" horiz-adv-x="278" 
d="M72 394l3 16h27c43 0 85 4 128 22l-104 -326c-7 -21 -16 -47 -16 -62c0 -12 7 -26 24 -26c53 0 99 68 111 86l12 -8c-13 -22 -72 -102 -150 -102c-32 0 -69 18 -69 67c0 19 7 39 13 60l85 273h-64zM50 552l161 169h38l88 -169h-33l-82 107l-135 -107h-37z" />
    <glyph glyph-name="idieresis" unicode="&#xef;" horiz-adv-x="278" 
d="M72 394l3 16h27c43 0 85 4 128 22l-104 -326c-7 -21 -16 -47 -16 -62c0 -12 7 -26 24 -26c53 0 99 68 111 86l12 -8c-13 -22 -72 -102 -150 -102c-32 0 -69 18 -69 67c0 19 7 39 13 60l85 273h-64zM80 617c0 22 27 63 52 63c23 0 38 -10 38 -34c0 -30 -22 -74 -56 -74
c-28 0 -34 22 -34 45zM269 617c0 22 27 63 52 63c23 0 38 -10 38 -34c0 -30 -22 -74 -56 -74c-28 0 -34 22 -34 45z" />
    <glyph glyph-name="igrave" unicode="&#xec;" horiz-adv-x="278" 
d="M72 394l3 16h27c43 0 85 4 128 22l-104 -326c-7 -21 -16 -47 -16 -62c0 -12 7 -26 24 -26c53 0 99 68 111 86l12 -8c-13 -22 -72 -102 -150 -102c-32 0 -69 18 -69 67c0 19 7 39 13 60l85 273h-64zM237 552l-136 106c-8 8 -19 17 -19 31c0 15 14 32 30 32
c17 0 25 -5 34 -17l120 -152h-29z" />
    <glyph glyph-name="ntilde" unicode="&#xf1;" 
d="M24 0l116 394h-62l4 16h21c43 0 85 4 128 22l-41 -138h2c44 73 120 138 198 138c64 0 94 -36 94 -81c0 -43 -95 -277 -95 -302c0 -16 7 -31 23 -31c43 0 84 68 100 87l10 -7c-20 -29 -67 -104 -140 -104c-47 0 -65 29 -65 74c0 62 95 273 95 315c0 20 -11 33 -38 33
c-47 0 -170 -74 -210 -210l-60 -206h-80zM496 678h26c-15 -52 -48 -102 -108 -102c-27 0 -51 11 -74 24c-18 10 -42 24 -63 24c-28 0 -47 -22 -55 -48h-26c15 52 48 102 108 102c27 0 51 -11 74 -24c18 -10 42 -24 63 -24c28 0 47 22 55 48z" />
    <glyph glyph-name="oacute" unicode="&#xf3;" horiz-adv-x="500" 
d="M36 163c0 125 112 269 260 269c70 0 153 -60 153 -161c0 -162 -131 -283 -251 -283c-110 0 -162 78 -162 175zM290 416c-51 0 -85 -31 -107 -69c-21 -36 -75 -209 -75 -256c0 -48 30 -87 87 -87c62 0 93 46 102 60c26 44 80 214 80 272c0 49 -30 80 -87 80zM259 552
l132 132c16 16 37 37 55 37c17 0 31 -13 31 -33c0 -19 -21 -33 -33 -40l-154 -96h-31z" />
    <glyph glyph-name="ocircumflex" unicode="&#xf4;" horiz-adv-x="500" 
d="M36 163c0 125 112 269 260 269c70 0 153 -60 153 -161c0 -162 -131 -283 -251 -283c-110 0 -162 78 -162 175zM290 416c-51 0 -85 -31 -107 -69c-21 -36 -75 -209 -75 -256c0 -48 30 -87 87 -87c62 0 93 46 102 60c26 44 80 214 80 272c0 49 -30 80 -87 80zM161 552
l161 169h38l88 -169h-33l-82 107l-135 -107h-37z" />
    <glyph glyph-name="odieresis" unicode="&#xf6;" horiz-adv-x="500" 
d="M36 163c0 125 112 269 260 269c70 0 153 -60 153 -161c0 -162 -131 -283 -251 -283c-110 0 -162 78 -162 175zM290 416c-51 0 -85 -31 -107 -69c-21 -36 -75 -209 -75 -256c0 -48 30 -87 87 -87c62 0 93 46 102 60c26 44 80 214 80 272c0 49 -30 80 -87 80zM191 617
c0 22 27 63 52 63c23 0 38 -10 38 -34c0 -30 -22 -74 -56 -74c-28 0 -34 22 -34 45zM380 617c0 22 27 63 52 63c23 0 38 -10 38 -34c0 -30 -22 -74 -56 -74c-28 0 -34 22 -34 45z" />
    <glyph glyph-name="ograve" unicode="&#xf2;" horiz-adv-x="500" 
d="M36 163c0 125 112 269 260 269c70 0 153 -60 153 -161c0 -162 -131 -283 -251 -283c-110 0 -162 78 -162 175zM290 416c-51 0 -85 -31 -107 -69c-21 -36 -75 -209 -75 -256c0 -48 30 -87 87 -87c62 0 93 46 102 60c26 44 80 214 80 272c0 49 -30 80 -87 80zM348 552
l-136 106c-8 8 -19 17 -19 31c0 15 14 32 30 32c17 0 25 -5 34 -17l120 -152h-29z" />
    <glyph glyph-name="otilde" unicode="&#xf5;" horiz-adv-x="500" 
d="M36 163c0 125 112 269 260 269c70 0 153 -60 153 -161c0 -162 -131 -283 -251 -283c-110 0 -162 78 -162 175zM290 416c-51 0 -85 -31 -107 -69c-21 -36 -75 -209 -75 -256c0 -48 30 -87 87 -87c62 0 93 46 102 60c26 44 80 214 80 272c0 49 -30 80 -87 80zM468 678h26
c-15 -52 -48 -102 -108 -102c-27 0 -51 11 -74 24c-18 10 -42 24 -63 24c-28 0 -47 -22 -55 -48h-26c15 52 48 102 108 102c27 0 51 -11 74 -24c18 -10 42 -24 63 -24c28 0 47 22 55 48z" />
    <glyph glyph-name="scaron" unicode="&#x161;" horiz-adv-x="389" 
d="M108 294c0 52 58 138 149 138c62 0 96 -36 96 -81c0 -31 -22 -47 -48 -47c-29 0 -42 21 -42 42c0 27 19 40 33 49c0 12 -10 21 -43 21c-40 0 -85 -18 -85 -85c0 -85 136 -82 136 -211c0 -60 -54 -132 -169 -132c-89 0 -118 65 -118 101c0 31 21 60 51 60s45 -24 45 -42
c0 -50 -49 -36 -49 -66c0 -14 15 -37 74 -37c51 0 94 28 94 83c0 84 -124 101 -124 207zM433 711l-161 -169h-38l-88 169h33l82 -107l135 107h37z" />
    <glyph glyph-name="uacute" unicode="&#xfa;" 
d="M499 410l-105 -325c-6 -17 -8 -35 -8 -43c0 -9 9 -24 28 -24c36 0 58 34 91 83l12 -7c-32 -51 -66 -100 -133 -100c-42 0 -70 24 -70 65c0 18 11 50 18 74h-2c-61 -80 -124 -139 -203 -139c-47 0 -90 12 -90 76c0 17 11 55 16 72l83 252h-64l4 16h27c43 0 85 4 128 22
l-112 -347c-6 -18 -10 -35 -10 -41c0 -21 13 -34 39 -34c57 0 173 97 209 210l61 190h81zM287 552l132 132c16 16 37 37 55 37c17 0 31 -13 31 -33c0 -19 -21 -33 -33 -40l-154 -96h-31z" />
    <glyph glyph-name="ucircumflex" unicode="&#xfb;" 
d="M499 410l-105 -325c-6 -17 -8 -35 -8 -43c0 -9 9 -24 28 -24c36 0 58 34 91 83l12 -7c-32 -51 -66 -100 -133 -100c-42 0 -70 24 -70 65c0 18 11 50 18 74h-2c-61 -80 -124 -139 -203 -139c-47 0 -90 12 -90 76c0 17 11 55 16 72l83 252h-64l4 16h27c43 0 85 4 128 22
l-112 -347c-6 -18 -10 -35 -10 -41c0 -21 13 -34 39 -34c57 0 173 97 209 210l61 190h81zM199 552l161 169h38l88 -169h-33l-82 107l-135 -107h-37z" />
    <glyph glyph-name="udieresis" unicode="&#xfc;" 
d="M499 410l-105 -325c-6 -17 -8 -35 -8 -43c0 -9 9 -24 28 -24c36 0 58 34 91 83l12 -7c-32 -51 -66 -100 -133 -100c-42 0 -70 24 -70 65c0 18 11 50 18 74h-2c-61 -80 -124 -139 -203 -139c-47 0 -90 12 -90 76c0 17 11 55 16 72l83 252h-64l4 16h27c43 0 85 4 128 22
l-112 -347c-6 -18 -10 -35 -10 -41c0 -21 13 -34 39 -34c57 0 173 97 209 210l61 190h81zM219 617c0 22 27 63 52 63c23 0 38 -10 38 -34c0 -30 -22 -74 -56 -74c-28 0 -34 22 -34 45zM408 617c0 22 27 63 52 63c23 0 38 -10 38 -34c0 -30 -22 -74 -56 -74
c-28 0 -34 22 -34 45z" />
    <glyph glyph-name="ugrave" unicode="&#xf9;" 
d="M499 410l-105 -325c-6 -17 -8 -35 -8 -43c0 -9 9 -24 28 -24c36 0 58 34 91 83l12 -7c-32 -51 -66 -100 -133 -100c-42 0 -70 24 -70 65c0 18 11 50 18 74h-2c-61 -80 -124 -139 -203 -139c-47 0 -90 12 -90 76c0 17 11 55 16 72l83 252h-64l4 16h27c43 0 85 4 128 22
l-112 -347c-6 -18 -10 -35 -10 -41c0 -21 13 -34 39 -34c57 0 173 97 209 210l61 190h81zM376 552l-136 106c-8 8 -19 17 -19 31c0 15 14 32 30 32c17 0 25 -5 34 -17l120 -152h-29z" />
    <glyph glyph-name="yacute" unicode="&#xfd;" horiz-adv-x="500" 
d="M257 93l107 195c50 91 81 144 133 144c28 0 48 -15 48 -51c0 -26 -19 -45 -44 -45c-19 0 -40 13 -40 35c0 10 6 17 6 26c0 3 -1 5 -4 5c-8 0 -38 -31 -85 -116l-115 -208c-84 -152 -176 -312 -298 -312c-42 0 -72 23 -72 61c0 29 22 51 48 51c23 0 42 -13 42 -45
c0 -25 -17 -29 -17 -40c0 -6 6 -10 17 -10c78 0 171 137 204 199l-49 359c-3 20 -8 49 -27 49c-34 0 -73 -79 -85 -98l-14 5c13 22 65 135 147 135c52 0 60 -58 66 -107l30 -232h2zM259 552l132 132c16 16 37 37 55 37c17 0 31 -13 31 -33c0 -19 -21 -33 -33 -40l-154 -96
h-31z" />
    <glyph glyph-name="ydieresis" unicode="&#xff;" horiz-adv-x="500" 
d="M257 93l107 195c50 91 81 144 133 144c28 0 48 -15 48 -51c0 -26 -19 -45 -44 -45c-19 0 -40 13 -40 35c0 10 6 17 6 26c0 3 -1 5 -4 5c-8 0 -38 -31 -85 -116l-115 -208c-84 -152 -176 -312 -298 -312c-42 0 -72 23 -72 61c0 29 22 51 48 51c23 0 42 -13 42 -45
c0 -25 -17 -29 -17 -40c0 -6 6 -10 17 -10c78 0 171 137 204 199l-49 359c-3 20 -8 49 -27 49c-34 0 -73 -79 -85 -98l-14 5c13 22 65 135 147 135c52 0 60 -58 66 -107l30 -232h2zM191 617c0 22 27 63 52 63c23 0 38 -10 38 -34c0 -30 -22 -74 -56 -74c-28 0 -34 22 -34 45
zM380 617c0 22 27 63 52 63c23 0 38 -10 38 -34c0 -30 -22 -74 -56 -74c-28 0 -34 22 -34 45z" />
    <glyph glyph-name="zcaron" unicode="&#x17e;" horiz-adv-x="444" 
d="M23 43l326 302l-2 2c-35 -13 -94 -21 -135 -21c-47 0 -87 4 -112 5h-5l-22 -46h-17c22 42 38 84 55 128c44 -8 198 -27 242 -27c31 0 52 6 52 13c0 3 -1 6 -1 10c0 9 5 17 14 17s16 -7 16 -15s-5 -14 -19 -27l-331 -304l2 -2c19 5 43 6 76 6c103 0 160 -42 184 -42
c15 0 31 9 31 22c0 24 -36 18 -36 57c0 24 13 36 31 36c23 0 35 -22 35 -50c0 -39 -31 -113 -166 -113c-45 0 -137 36 -187 36c-21 0 -34 -4 -34 -12c0 -5 4 -5 4 -13c0 -6 -4 -11 -15 -11s-15 7 -15 15c0 6 5 12 29 34zM420 721l-161 -169h-38l-88 169h33l82 -107l135 107
h37z" />
    <glyph glyph-name="dollar.oldstyle" unicode="&#xf724;" 
d="M292 319l-84 -312c11 -2 23 -3 35 -3c114 0 184 79 184 176c0 86 -65 112 -135 139zM305 433l70 259c-8 2 -15 2 -23 2c-87 0 -170 -59 -170 -145c0 -65 57 -91 123 -116zM147 -154l39 148c-63 10 -104 52 -140 52c-24 0 -32 -24 -41 -46l-15 3l69 250l16 -3
c-8 -29 -13 -58 -13 -87c0 -76 53 -135 129 -152l85 315c-69 26 -136 59 -136 160c0 108 69 224 217 224c8 0 15 0 22 -2l33 121l16 -5l-32 -118c66 -12 92 -51 121 -51c28 0 30 23 33 34l16 -5l-57 -206l-16 3c5 25 10 49 10 75c0 73 -45 121 -111 134l-71 -264
c82 -32 172 -68 172 -185c0 -98 -63 -253 -259 -253c-11 0 -22 1 -31 3l-41 -150z" />
    <glyph glyph-name="zero.oldstyle" unicode="&#xf730;" horiz-adv-x="536" 
d="M42 175c0 168 130 297 295 297c106 0 157 -60 157 -165c0 -163 -100 -319 -261 -319c-164 0 -191 119 -191 187zM126 133c0 -52 21 -129 111 -129c140 0 241 153 241 294c0 109 -51 158 -131 158c-149 0 -221 -200 -221 -323z" />
    <glyph glyph-name="one.oldstyle" unicode="&#xf731;" horiz-adv-x="352" 
d="M-27 0l5 16h92l122 428h-97l5 16h279l-5 -16h-92l-122 -428h97l-5 -16h-279z" />
    <glyph glyph-name="two.oldstyle" unicode="&#xf732;" horiz-adv-x="464" 
d="M404 134l-66 -134h-350c31 66 48 98 182 164c79 39 144 83 144 180c0 53 -27 112 -103 112c-67 0 -109 -38 -109 -59c0 -24 54 -21 54 -70c0 -25 -14 -45 -43 -45c-42 0 -53 40 -53 66c0 83 87 124 170 124c90 0 174 -50 174 -136c0 -75 -67 -124 -155 -162
c-75 -32 -153 -62 -194 -100v-2h297l39 68z" />
    <glyph glyph-name="three.oldstyle" unicode="&#xf733;" horiz-adv-x="464" 
d="M72 138l4 16h69c115 0 189 78 189 197c0 62 -37 105 -113 105c-52 0 -115 -35 -115 -75c0 -9 7 -12 27 -16c14 -2 33 -10 33 -37c0 -32 -20 -50 -49 -50c-37 0 -53 27 -53 58c0 89 87 136 169 136c127 0 191 -70 191 -141c0 -121 -131 -176 -231 -186v-2
c84 -11 176 -48 176 -162c0 -142 -126 -236 -267 -236c-118 0 -154 74 -154 123c0 59 34 91 69 91c31 0 57 -12 57 -49c0 -31 -23 -53 -51 -53c-11 0 -22 6 -32 6c-12 0 -19 -8 -19 -19c0 -43 52 -83 118 -83c112 0 183 115 183 252c0 103 -56 125 -201 125z" />
    <glyph glyph-name="four.oldstyle" unicode="&#xf734;" horiz-adv-x="500" 
d="M154 -235l72 235h-293l481 472h42l-122 -412h94l-18 -60h-94l-72 -235h-90zM244 60l97 316l-2 2l-325 -318h230z" />
    <glyph glyph-name="five.oldstyle" unicode="&#xf735;" horiz-adv-x="464" 
d="M145 359l-64 -214l2 -2c42 44 84 69 146 69c99 0 167 -73 167 -174c0 -114 -122 -293 -308 -293c-83 0 -145 41 -145 114c0 38 21 68 57 68c31 0 51 -17 51 -51c0 -22 -11 -41 -28 -47c-15 -5 -26 -15 -26 -28c0 -14 14 -40 86 -40c172 0 211 247 211 309
c0 91 -55 112 -96 112c-44 0 -82 -23 -108 -55c-32 -39 -32 -56 -39 -56c-4 0 -5 2 -5 4s1 5 3 11l110 374c57 -28 112 -40 152 -40c50 0 90 8 130 52c-11 -96 -83 -136 -176 -136c-38 0 -77 7 -120 23z" />
    <glyph glyph-name="six.oldstyle" unicode="&#xf736;" 
d="M59 235c0 192 188 473 388 473c59 0 103 -28 103 -80c0 -24 -15 -54 -52 -54c-32 0 -50 24 -50 50s23 39 23 53c0 10 -10 15 -24 15c-170 0 -310 -388 -310 -560c0 -89 46 -128 106 -128c145 0 176 287 176 317c0 56 -15 101 -68 101c-38 0 -52 -13 -52 -27
c0 -11 19 -22 19 -48c0 -35 -22 -49 -46 -49c-26 0 -44 20 -44 50c0 55 52 90 120 90c71 0 155 -54 155 -177c0 -117 -92 -273 -257 -273c-111 0 -187 88 -187 247z" />
    <glyph glyph-name="seven.oldstyle" unicode="&#xf737;" horiz-adv-x="464" 
d="M30 269l-13 3c33 80 62 157 87 243l15 -3c-9 -28 -15 -53 -15 -60c0 -17 100 -30 166 -30s171 11 224 50l11 -12c-94 -102 -226 -270 -274 -344c-72 -112 -122 -201 -122 -240c0 -16 6 -23 26 -23c38 0 54 -22 54 -53c0 -39 -34 -55 -56 -55c-40 0 -60 37 -60 72
c0 97 98 249 157 330c46 63 108 140 173 217l-2 2c-49 -18 -92 -34 -194 -34c-89 0 -134 16 -138 16c-3 0 -6 -2 -7 -5z" />
    <glyph glyph-name="eight.oldstyle" unicode="&#xf738;" horiz-adv-x="500" 
d="M358 142c0 61 -43 115 -125 204c-91 -29 -185 -109 -185 -204c0 -46 35 -138 163 -138c112 0 147 92 147 138zM214 571c0 -58 51 -111 105 -170c42 20 159 86 159 180c0 75 -58 111 -123 111c-103 0 -141 -55 -141 -121zM32 143c0 124 121 188 188 216
c-41 47 -72 82 -72 155c0 113 93 194 200 194c86 0 146 -40 146 -128c0 -87 -78 -145 -164 -191c44 -46 106 -116 106 -192c0 -117 -101 -209 -227 -209c-107 0 -177 68 -177 155z" />
    <glyph glyph-name="nine.oldstyle" unicode="&#xf739;" 
d="M53 193c0 150 121 279 257 279c93 0 187 -75 187 -251c0 -230 -215 -476 -388 -476c-52 0 -103 24 -103 78c0 36 21 58 50 58s52 -22 52 -51c0 -25 -24 -41 -24 -54c0 -10 6 -15 25 -15c173 0 310 406 310 548c0 52 -1 147 -109 147c-137 0 -173 -276 -173 -322
c0 -63 20 -102 68 -102c24 0 51 11 51 28c0 15 -18 19 -18 49c0 25 13 48 45 48c30 0 45 -23 45 -52c0 -52 -62 -89 -116 -89c-71 0 -159 51 -159 177z" />
    <glyph glyph-name="cent.oldstyle" unicode="&#xf7a2;" 
d="M221 9l123 407c-133 -12 -171 -250 -171 -322c0 -40 14 -74 48 -85zM189 -94l26 85c-54 13 -126 59 -126 167c0 131 128 267 260 274l24 77h15l-24 -77c65 -2 104 -34 104 -72c0 -33 -18 -51 -46 -51c-26 0 -44 16 -44 47c0 27 11 37 11 44c0 9 -4 16 -30 16l-125 -410
c5 -2 11 -2 16 -2c99 0 174 128 183 149l14 -5c-13 -32 -87 -160 -201 -160c-5 0 -11 0 -17 2l-25 -84h-15z" />
    <glyph glyph-name="one.superior" unicode="&#xb9;" horiz-adv-x="361" 
d="M162 300l115 348c-44 -25 -90 -47 -139 -64l-3 13c64 25 162 76 222 113l-133 -410h66l-3 -16h-193l4 16h64z" />
    <glyph glyph-name="two.superior" unicode="&#xb2;" horiz-adv-x="361" 
d="M309 338l29 29l9 -3l-47 -80h-259c43 109 174 142 221 188c40 36 67 78 67 147c0 56 -42 75 -90 75c-54 0 -96 -22 -96 -61c0 -28 40 -34 40 -66c0 -8 -5 -24 -24 -24c-30 0 -40 36 -40 61c0 69 60 106 133 106c76 0 143 -31 143 -106c0 -145 -233 -163 -310 -266h224z
" />
    <glyph glyph-name="three.superior" unicode="&#xb3;" horiz-adv-x="361" 
d="M152 507l4 16h49c74 0 124 30 124 118c0 47 -33 53 -72 53c-48 0 -78 -23 -78 -36c0 -6 3 -7 16 -9c16 -3 23 -13 23 -25c0 -18 -16 -29 -33 -29c-23 0 -30 20 -30 32c0 59 66 83 112 83c63 0 128 -25 128 -90s-89 -101 -156 -105v-2c70 -3 117 -31 117 -96
c0 -82 -87 -139 -170 -139c-69 0 -118 23 -118 77c0 25 23 49 52 49c19 0 33 -13 33 -30s-14 -30 -30 -30c-13 0 -15 4 -24 4s-15 -3 -15 -12c0 -15 30 -42 84 -42c98 0 122 81 122 153c0 64 -79 59 -138 60z" />
    <glyph glyph-name="Delta" unicode="&#x2206;" horiz-adv-x="624" 
d="M539 0h-551l4 19l401 677l32 10l118 -687zM465 39l-94 563l-329 -563h423z" />
    <glyph glyph-name="Omega" unicode="&#x2126;" horiz-adv-x="727" 
d="M672 131l-51 -131h-228l-2 17c61 78 185 209 217 364c46 219 -45 298 -149 298c-114 0 -229 -85 -276 -303c-31 -150 25 -268 62 -358l-11 -18h-225l5 131l21 1c7 -68 21 -79 59 -79h110c-48 56 -131 163 -96 329c42 198 197 324 359 324c165 0 260 -117 218 -315
c-31 -147 -153 -263 -239 -338h112c43 0 55 8 92 79z" />
    <glyph glyph-name="uni03BC" unicode="&#x3bc;" 
d="M499 410l-105 -325c-6 -17 -8 -35 -8 -43c0 -9 9 -24 28 -24c36 0 58 34 91 83l12 -7c-32 -51 -66 -100 -133 -100c-42 0 -70 24 -70 65c0 18 11 50 18 74h-2c-61 -80 -124 -139 -203 -139c-22 0 -31 5 -42 14c-26 -58 -48 -149 -58 -205s-29 -73 -67 -73
c-16 0 -34 11 -34 34c0 42 30 81 81 236l129 394h-64l4 16h27c43 0 85 4 128 22l-112 -347c-6 -18 -10 -35 -10 -41c0 -21 13 -34 39 -34c57 0 173 97 209 210l61 190h81z" />
    <glyph glyph-name="pi" unicode="&#x3c0;" 
d="M557 475l19 -9c-16 -36 -34 -59 -50 -76c-17 -3 -43 -4 -72 -4c-18 -60 -43 -183 -58 -255c-13 -59 -9 -94 26 -94c22 0 37 11 60 34l10 -17c-37 -49 -77 -66 -110 -66c-49 0 -76 26 -55 126c20 92 47 192 70 275c-62 1 -130 2 -172 2l-5 -23
c-49 -230 -126 -347 -143 -363c-16 -6 -43 -16 -58 -17l-2 15c95 90 153 282 176 389c-70 0 -101 -22 -141 -50l-9 18c35 33 83 85 182 85c71 0 166 -4 265 -4c29 0 43 5 67 34z" />
    <glyph glyph-name="Euro" unicode="&#x20ac;" 
d="M585 572h-19c6 70 -44 102 -119 102c-129 0 -196 -99 -244 -257h295l-21 -33h-283c-2 -9 -6 -23 -7 -32c-3 -10 -6 -26 -7 -34h255l-21 -34h-240c-24 -167 21 -261 135 -261c65 0 135 27 163 104h18l-21 -75c-34 -35 -88 -63 -180 -63c-154 0 -213 101 -186 295h-70
l21 34h52c1 8 5 26 7 35c1 8 5 22 7 31h-66l21 33h55c58 186 144 293 312 293c100 0 138 -33 154 -60z" />
    <glyph glyph-name="afii61289" unicode="&#x2113;" horiz-adv-x="394" 
d="M333 108l13 -15c-50 -68 -109 -103 -177 -103c-42 0 -71 14 -86 39c-16 28 -19 65 -2 145l20 90l-72 -48l-8 20l86 61l27 125c37 175 56 230 111 279c28 27 55 40 83 40c55 0 70 -60 55 -130c-26 -121 -115 -220 -211 -304l-22 -100c-29 -137 1 -172 57 -172
c47 0 90 32 126 73zM209 485l-29 -137c76 73 141 174 160 262c13 59 5 103 -28 103c-39 0 -68 -66 -103 -228z" />
    <glyph glyph-name="estimated" unicode="&#x212e;" horiz-adv-x="971" 
d="M937 338h-648c-4 0 -6 -1 -6 -4v-196c0 -9 3 -16 9 -23c63 -65 149 -106 245 -106c103 0 195 47 258 119h58c-72 -84 -188 -139 -317 -139c-221 0 -400 161 -400 359c0 199 179 360 400 360c222 0 401 -161 401 -360v-10zM790 364v197c0 9 -3 17 -10 24
c-63 62 -148 102 -243 102s-181 -41 -244 -105c-7 -7 -10 -15 -10 -25v-193c0 -2 2 -6 6 -6h496c4 0 5 4 5 6z" />
    <glyph glyph-name="partialdiff" unicode="&#x2202;" horiz-adv-x="518" 
d="M303 435h1c48 0 102 -24 126 -77c10 33 20 67 29 106c12 52 16 109 7 163c-9 51 -51 111 -117 111c-51 0 -103 -24 -145 -53c-15 -3 -27 29 -14 50c38 23 91 43 146 43c93 0 142 -53 168 -142c23 -77 11 -174 -2 -232c-15 -73 -49 -180 -101 -259
c-60 -91 -137 -155 -228 -155c-108 0 -163 77 -136 204c15 69 53 127 93 165c44 43 111 76 173 76zM313 399h-1c-46 0 -89 -17 -131 -60c-41 -46 -69 -110 -83 -176c-16 -76 11 -145 79 -145c60 0 111 53 147 106c42 62 63 114 91 195c-7 29 -43 80 -102 80z" />
    <glyph glyph-name="product" unicode="&#x220f;" horiz-adv-x="766" 
d="M738 696v-23c-86 -6 -90 -11 -90 -58v-611c0 -56 6 -64 87 -70v-22h-238v22c81 6 87 9 87 70v632c0 28 -6 31 -34 31h-235c-28 0 -33 -3 -33 -27v-636c0 -56 -1 -63 79 -70v-22h-230v22c79 6 86 11 86 70v611c0 48 -5 52 -89 58v23h610z" />
    <glyph glyph-name="summation" unicode="&#x2211;" horiz-adv-x="643" 
d="M620 84l-41 -173h-450v19l228 364l-222 382v20h444c1 -18 8 -92 12 -154l-23 -5c-8 50 -19 82 -31 101c-12 22 -27 29 -103 29h-215l197 -333l-225 -365h270c85 0 96 5 136 122z" />
    <glyph glyph-name="uni2219" unicode="&#x2219;" horiz-adv-x="278" 
d="M100 308c0 30 24 54 54 54s54 -24 54 -54s-24 -54 -54 -54s-54 24 -54 54z" />
    <glyph glyph-name="radical" unicode="&#x221a;" horiz-adv-x="644" 
d="M624 901l-160 -1041l-16 -10l-220 557l-86 -42l-10 28l140 69l179 -466h2l138 914z" />
    <glyph glyph-name="infinity" unicode="&#x221e;" horiz-adv-x="795" 
d="M746 290v-1c0 -94 -70 -153 -147 -153c-61 0 -110 39 -178 116c-51 -59 -104 -116 -183 -116s-144 65 -144 149c0 88 63 153 150 153c73 0 129 -56 181 -117c50 57 100 117 181 117c84 -1 140 -61 140 -148zM244 179h1c63 0 111 62 151 105c-43 52 -88 111 -158 111
c-62 0 -98 -52 -98 -111c1 -58 42 -105 104 -105zM601 395h-1c-65 0 -118 -72 -152 -107c65 -71 102 -109 155 -109c62 0 97 55 97 106c0 70 -42 110 -99 110z" />
    <glyph glyph-name="integral" unicode="&#x222b;" horiz-adv-x="459" 
d="M263 27l-19 420c-15 333 55 407 140 407c22 0 52 -13 52 -40c0 -23 -16 -35 -35 -35c-29 0 -27 37 -50 37s-56 -33 -49 -177l17 -394c17 -372 -58 -437 -138 -437c-33 0 -54 20 -54 42c-1 21 18 38 42 38c25 0 25 -40 47 -40c33 0 52 71 47 179z" />
    <glyph glyph-name="approxequal" unicode="&#x2248;" horiz-adv-x="584" 
d="M510 423l29 -25c-25 -50 -64 -92 -124 -92c-39 0 -67 16 -113 41c-29 17 -58 33 -90 33c-45 0 -72 -34 -96 -73l-31 25c29 56 78 92 133 92c47 0 82 -26 109 -40c34 -19 56 -34 91 -34c39 0 65 25 92 73zM510 261l29 -26c-25 -50 -64 -91 -124 -91c-39 0 -67 15 -113 40
c-30 17 -58 33 -89 33c-46 0 -73 -34 -97 -73l-31 25c29 57 78 92 133 92c48 0 82 -25 109 -39c31 -18 55 -34 91 -34c40 0 64 25 92 73z" />
    <glyph glyph-name="notequal" unicode="&#x2260;" horiz-adv-x="603" 
d="M444 494l-43 -95h152v-46h-171l-65 -142h236v-44h-255l-52 -114l-36 16l45 98h-145v44h164l64 142h-228v46h247l51 112z" />
    <glyph glyph-name="lessequal" unicode="&#x2264;" horiz-adv-x="618" 
d="M566 100l-435 219v48l435 218v-54l-385 -186v-2l385 -189v-54zM569 13h-443v47h443v-47z" />
    <glyph glyph-name="greaterequal" unicode="&#x2265;" horiz-adv-x="618" 
d="M132 585l435 -218v-48l-435 -219v54l385 188v2l-385 187v54zM568 13h-441v47h441v-47z" />
    <glyph glyph-name="lozenge" unicode="&#x25ca;" horiz-adv-x="651" 
d="M603 336l-200 -405h-52l-199 405l200 409h51zM551 336l-171 357h-3l-173 -355l173 -357h3z" />
    <glyph glyph-name="uni00A0" unicode="&#xa0;" horiz-adv-x="278" 
 />
    <glyph glyph-name="uni00AD" unicode="&#xad;" horiz-adv-x="389" 
d="M298 214h-238l16 54h238z" />
    <glyph glyph-name="uni02C9" unicode="&#x2c9;" horiz-adv-x="278" 
d="M87 557l8 48h259l-8 -48h-259z" />
    <glyph glyph-name="zero.taboldstyle" unicode="&#xf643;" 
d="M52 175c0 168 130 297 295 297c106 0 157 -60 157 -165c0 -163 -100 -319 -261 -319c-164 0 -191 119 -191 187zM136 133c0 -52 21 -129 111 -129c140 0 241 153 241 294c0 109 -51 158 -131 158c-149 0 -221 -200 -221 -323z" />
    <glyph glyph-name="one.taboldstyle" unicode="&#xf644;" 
d="M75 0l5 16h92l122 428h-97l5 16h279l-5 -16h-92l-122 -428h97l-5 -16h-279z" />
    <glyph glyph-name="two.taboldstyle" unicode="&#xf645;" 
d="M450 134l-66 -134h-350c31 66 48 98 182 164c79 39 144 83 144 180c0 53 -27 112 -103 112c-67 0 -109 -38 -109 -59c0 -24 54 -21 54 -70c0 -25 -14 -45 -43 -45c-42 0 -53 40 -53 66c0 83 87 124 170 124c90 0 174 -50 174 -136c0 -75 -67 -124 -155 -162
c-75 -32 -153 -62 -194 -100v-2h297l39 68z" />
    <glyph glyph-name="three.taboldstyle" unicode="&#xf646;" 
d="M118 138l4 16h69c115 0 189 78 189 197c0 62 -37 105 -113 105c-52 0 -115 -35 -115 -75c0 -9 7 -12 27 -16c14 -2 33 -10 33 -37c0 -32 -20 -50 -49 -50c-37 0 -53 27 -53 58c0 89 87 136 169 136c127 0 191 -70 191 -141c0 -121 -131 -176 -231 -186v-2
c84 -11 176 -48 176 -162c0 -142 -126 -236 -267 -236c-118 0 -154 74 -154 123c0 59 34 91 69 91c31 0 57 -12 57 -49c0 -31 -23 -53 -51 -53c-11 0 -22 6 -32 6c-12 0 -19 -8 -19 -19c0 -43 52 -83 118 -83c112 0 183 115 183 252c0 103 -56 125 -201 125z" />
    <glyph glyph-name="four.taboldstyle" unicode="&#xf647;" 
d="M182 -235l72 235h-293l481 472h42l-122 -412h94l-18 -60h-94l-72 -235h-90zM272 60l97 316l-2 2l-325 -318h230z" />
    <glyph glyph-name="five.taboldstyle" unicode="&#xf648;" 
d="M191 359l-64 -214l2 -2c42 44 84 69 146 69c99 0 167 -73 167 -174c0 -114 -122 -293 -308 -293c-83 0 -145 41 -145 114c0 38 21 68 57 68c31 0 51 -17 51 -51c0 -22 -11 -41 -28 -47c-15 -5 -26 -15 -26 -28c0 -14 14 -40 86 -40c172 0 211 247 211 309
c0 91 -55 112 -96 112c-44 0 -82 -23 -108 -55c-32 -39 -32 -56 -39 -56c-4 0 -5 2 -5 4s1 5 3 11l110 374c57 -28 112 -40 152 -40c50 0 90 8 130 52c-11 -96 -83 -136 -176 -136c-38 0 -77 7 -120 23z" />
    <glyph glyph-name="six.taboldstyle" unicode="&#xf649;" 
d="M59 235c0 192 188 473 388 473c59 0 103 -28 103 -80c0 -24 -15 -54 -52 -54c-32 0 -50 24 -50 50s23 39 23 53c0 10 -10 15 -24 15c-170 0 -310 -388 -310 -560c0 -89 46 -128 106 -128c145 0 176 287 176 317c0 56 -15 101 -68 101c-38 0 -52 -13 -52 -27
c0 -11 19 -22 19 -48c0 -35 -22 -49 -46 -49c-26 0 -44 20 -44 50c0 55 52 90 120 90c71 0 155 -54 155 -177c0 -117 -92 -273 -257 -273c-111 0 -187 88 -187 247z" />
    <glyph glyph-name="seven.taboldstyle" unicode="&#xf64a;" 
d="M76 269l-13 3c33 80 62 157 87 243l15 -3c-9 -28 -15 -53 -15 -60c0 -17 100 -30 166 -30s171 11 224 50l11 -12c-94 -102 -226 -270 -274 -344c-72 -112 -122 -201 -122 -240c0 -16 6 -23 26 -23c38 0 54 -22 54 -53c0 -39 -34 -55 -56 -55c-40 0 -60 37 -60 72
c0 97 98 249 157 330c46 63 108 140 173 217l-2 2c-49 -18 -92 -34 -194 -34c-89 0 -134 16 -138 16c-3 0 -6 -2 -7 -5z" />
    <glyph glyph-name="eight.taboldstyle" unicode="&#xf64b;" 
d="M386 142c0 61 -43 115 -125 204c-91 -29 -185 -109 -185 -204c0 -46 35 -138 163 -138c112 0 147 92 147 138zM242 571c0 -58 51 -111 105 -170c42 20 159 86 159 180c0 75 -58 111 -123 111c-103 0 -141 -55 -141 -121zM60 143c0 124 121 188 188 216
c-41 47 -72 82 -72 155c0 113 93 194 200 194c86 0 146 -40 146 -128c0 -87 -78 -145 -164 -191c44 -46 106 -116 106 -192c0 -117 -101 -209 -227 -209c-107 0 -177 68 -177 155z" />
    <glyph glyph-name="nine.taboldstyle" unicode="&#xf64c;" 
d="M53 193c0 150 121 279 257 279c93 0 187 -75 187 -251c0 -230 -215 -476 -388 -476c-52 0 -103 24 -103 78c0 36 21 58 50 58s52 -22 52 -51c0 -25 -24 -41 -24 -54c0 -10 6 -15 25 -15c173 0 310 406 310 548c0 52 -1 147 -109 147c-137 0 -173 -276 -173 -322
c0 -63 20 -102 68 -102c24 0 51 11 51 28c0 15 -18 19 -18 49c0 25 13 48 45 48c30 0 45 -23 45 -52c0 -52 -62 -89 -116 -89c-71 0 -159 51 -159 177z" />
    <glyph glyph-name="dollar.taboldstyle" unicode="&#xf653;" 
d="M292 319l-84 -312c11 -2 23 -3 35 -3c114 0 184 79 184 176c0 86 -65 112 -135 139zM305 433l70 259c-8 2 -15 2 -23 2c-87 0 -170 -59 -170 -145c0 -65 57 -91 123 -116zM147 -154l39 148c-63 10 -104 52 -140 52c-24 0 -32 -24 -41 -46l-15 3l69 250l16 -3
c-8 -29 -13 -58 -13 -87c0 -76 53 -135 129 -152l85 315c-69 26 -136 59 -136 160c0 108 69 224 217 224c8 0 15 0 22 -2l33 121l16 -5l-32 -118c66 -12 92 -51 121 -51c28 0 30 23 33 34l16 -5l-57 -206l-16 3c5 25 10 49 10 75c0 73 -45 121 -111 134l-71 -264
c82 -32 172 -68 172 -185c0 -98 -63 -253 -259 -253c-11 0 -22 1 -31 3l-41 -150z" />
    <glyph glyph-name="cent.taboldstyle" unicode="&#xf654;" 
d="M221 9l123 407c-133 -12 -171 -250 -171 -322c0 -40 14 -74 48 -85zM189 -94l26 85c-54 13 -126 59 -126 167c0 131 128 267 260 274l24 77h15l-24 -77c65 -2 104 -34 104 -72c0 -33 -18 -51 -46 -51c-26 0 -44 16 -44 47c0 27 11 37 11 44c0 9 -4 16 -30 16l-125 -410
c5 -2 11 -2 16 -2c99 0 174 128 183 149l14 -5c-13 -32 -87 -160 -201 -160c-5 0 -11 0 -17 2l-25 -84h-15z" />
    <glyph glyph-name="uni2215" unicode="&#x2215;" horiz-adv-x="167" 
d="M-151 -22l463 742h45l-463 -742h-45z" />
    <glyph glyph-name="uni03A9" unicode="&#x3a9;" horiz-adv-x="727" 
d="M672 131l-51 -131h-228l-2 17c61 78 185 209 217 364c46 219 -45 298 -149 298c-114 0 -229 -85 -276 -303c-31 -150 25 -268 62 -358l-11 -18h-225l5 131l21 1c7 -68 21 -79 59 -79h110c-48 56 -131 163 -96 329c42 198 197 324 359 324c165 0 260 -117 218 -315
c-31 -147 -153 -263 -239 -338h112c43 0 55 8 92 79z" />
    </font>
</defs>
</svg>
